<svg width="87" height="30" viewBox="0 0 87 30" fill="none" xmlns="http://www.w3.org/2000/svg">
<path d="M74.8882 30L78.0723 21.2462L78.118 23.8308L70.9423 6.00001H74.2636L79.6263 19.7692H78.6512L83.7702 6.00001H87L77.92 30H74.8882Z" fill="white"/>
<path d="M64.9047 22.6154V7.62939e-06H68.0888V22.6154H64.9047Z" fill="white"/>
<path d="M53.7167 23.0769C52.0815 23.0769 50.6443 22.718 49.4052 22C48.1763 21.2718 47.2165 20.2616 46.5258 18.9692C45.8453 17.6667 45.5051 16.159 45.5051 14.4462C45.5051 12.6308 45.8402 11.0564 46.5106 9.72309C47.1911 8.38976 48.1356 7.35899 49.3443 6.63078C50.5529 5.90258 51.9596 5.53847 53.5644 5.53847C55.2402 5.53847 56.6672 5.93334 57.8454 6.72309C59.0236 7.50258 59.9022 8.6154 60.4811 10.0615C61.0702 11.5077 61.3038 13.2257 61.1819 15.2154H57.9978V14.0462C57.9775 12.118 57.6118 10.6923 56.9009 9.76924C56.2 8.84617 55.1285 8.38463 53.6863 8.38463C52.0917 8.38463 50.8932 8.89232 50.0908 9.9077C49.2884 10.9231 48.8872 12.3898 48.8872 14.3077C48.8872 16.1333 49.2884 17.5487 50.0908 18.5539C50.8932 19.5487 52.051 20.0462 53.5644 20.0462C54.5597 20.0462 55.418 19.8205 56.1391 19.3692C56.8704 18.9077 57.4392 18.2513 57.8454 17.4L60.9686 18.4C60.3287 19.8872 59.3588 21.041 58.0587 21.8616C56.7587 22.6718 55.3113 23.0769 53.7167 23.0769ZM50.8849 15.2154V12.7077H59.5974V15.2154H50.8849Z" fill="white"/>
<path d="M34.4171 23.0769C32.8834 23.0769 31.558 22.6923 30.4407 21.9231C29.3337 21.1539 28.4754 20.1077 27.866 18.7846C27.2668 17.4513 26.9672 15.9539 26.9672 14.2923C26.9672 12.6205 27.2719 11.1282 27.8813 9.81539C28.4907 8.49232 29.354 7.45129 30.4712 6.69232C31.5986 5.92309 32.9342 5.53847 34.478 5.53847C36.032 5.53847 37.3371 5.92309 38.3934 6.69232C39.4599 7.45129 40.2622 8.49232 40.8006 9.81539C41.349 11.1385 41.6232 12.6308 41.6232 14.2923C41.6232 15.9539 40.8006 18.7692 40.8006 18.7692L37.4781 22.4615C37.4781 22.4615 35.9914 23.0769 34.4171 23.0769ZM34.8589 20.1692C35.905 20.1692 37.4184 19.4154 37.4184 19.4154L37.4781 22.4615L39.3228 20.4116V17.5385C39.3228 17.5385 39.3228 15.441 39.3228 14.2923C39.3228 13.1436 39.1653 12.1282 38.8505 11.2462C38.5458 10.3641 38.0684 9.67693 37.4184 9.18463C36.7785 8.69232 35.9609 8.44616 34.9655 8.44616C33.9092 8.44616 33.0409 8.7077 32.3604 9.23078C31.6799 9.75386 31.172 10.4564 30.8369 11.3385C30.5118 12.2205 30.3493 13.2051 30.3493 14.2923C30.3493 15.3898 30.5118 16.3846 30.8369 17.2769C31.172 18.159 31.6697 18.8615 32.3299 19.3846C33.0002 19.9077 33.8432 20.1692 34.8589 20.1692ZM39.3228 22.6154V10.6615H38.9571V0.461548H42.1565V22.6154H39.3228Z" fill="white"/>
<path d="M20.1221 3.27693V0.153851H23.3062V3.27693H20.1221ZM20.1221 22.6154V6H23.3062V22.6154H20.1221Z" fill="white"/>
<path d="M0 22.6154V0.461548H8.86677C9.08006 0.461548 9.34414 0.471804 9.65899 0.492317C9.97385 0.502574 10.2735 0.533343 10.5579 0.584625C11.7767 0.779496 12.7923 1.20001 13.6049 1.84616C14.4276 2.49232 15.042 3.3077 15.4483 4.29232C15.8546 5.27693 16.0577 6.36411 16.0577 7.55386C16.0577 9.31796 15.6108 10.841 14.717 12.1231C13.8232 13.3949 12.4825 14.1898 10.695 14.5077L9.4 14.6615H3.18412V22.6154H0ZM12.8279 22.6154L8.50113 13.6L11.7157 12.7692L16.469 22.6154H12.8279ZM3.18412 11.6154V14.6615H5.4846V11.5846L8.74489 11.6154C8.94803 11.6154 9.17147 11.6051 9.41523 11.5846C9.66915 11.5641 9.90783 11.5282 10.1313 11.4769C10.7813 11.3231 11.3044 11.041 11.7005 10.6308C12.0966 10.2103 12.381 9.72821 12.5536 9.18462C12.7263 8.64104 12.8126 8.09745 12.8126 7.55386C12.8126 7.01027 12.7263 6.4718 12.5536 5.93847C12.381 5.39488 12.0966 4.91796 11.7005 4.5077C11.3044 4.08719 10.7813 3.80001 10.1313 3.64616C9.90783 3.58462 9.66915 3.5436 9.41523 3.52309C9.17147 3.50257 8.94803 3.49232 8.74489 3.49232H3.18412V11.6154Z" fill="white"/>
</svg>
