<svg width="267" height="91" viewBox="0 0 267 91" fill="none" xmlns="http://www.w3.org/2000/svg">
<path d="M229.391 90.9997L239.145 64.4464L239.285 72.2864L217.305 18.1997H227.478L243.905 59.9664H240.918L256.598 18.1997H266.491L238.678 90.9997H229.391Z" fill="white"/>
<path d="M198.811 68.6V0H208.564V68.6H198.811Z" fill="white"/>
<path d="M164.54 69.9998C159.531 69.9998 155.129 68.9109 151.333 66.7331C147.569 64.5243 144.629 61.4598 142.513 57.5398C140.429 53.5887 139.387 49.0154 139.387 43.8198C139.387 38.3131 140.413 33.5376 142.467 29.4931C144.551 25.4487 147.445 22.322 151.147 20.1131C154.849 17.9042 159.158 16.7998 164.073 16.7998C169.207 16.7998 173.578 17.9976 177.187 20.3931C180.796 22.7576 183.487 26.1331 185.26 30.5198C187.065 34.9065 187.78 40.1176 187.407 46.1531H177.653V42.6065C177.591 36.7576 176.471 32.4331 174.293 29.6331C172.147 26.8331 168.865 25.4331 164.447 25.4331C159.562 25.4331 155.891 26.9731 153.433 30.0531C150.976 33.1331 149.747 37.582 149.747 43.3998C149.747 48.9376 150.976 53.2309 153.433 56.2798C155.891 59.2976 159.438 60.8065 164.073 60.8065C167.122 60.8065 169.751 60.122 171.96 58.7531C174.2 57.3531 175.942 55.362 177.187 52.7798L186.753 55.8131C184.793 60.3242 181.822 63.8243 177.84 66.3131C173.858 68.7709 169.424 69.9998 164.54 69.9998ZM155.866 46.1531V38.5465H182.553V46.1531H155.866Z" fill="white"/>
<path d="M105.424 69.9999C100.726 69.9999 96.6657 68.8332 93.2435 66.4999C89.8524 64.1666 87.2235 60.9932 85.3568 56.9799C83.5213 52.9355 82.6035 48.3932 82.6035 43.3532C82.6035 38.2821 83.5368 33.7555 85.4035 29.7732C87.2702 25.7599 89.9146 22.6021 93.3368 20.2999C96.7902 17.9666 100.881 16.7999 105.61 16.7999C110.37 16.7999 114.368 17.9666 117.604 20.2999C120.87 22.6021 123.328 25.7599 124.977 29.7732C126.657 33.7866 127.497 38.3132 127.497 43.3532C127.497 48.3932 124.977 56.9332 124.977 56.9332L114.8 68.1332C114.8 68.1332 110.246 69.9999 105.424 69.9999ZM106.777 61.1799C109.981 61.1799 114.617 58.8932 114.617 58.8932L114.8 68.1332L120.45 61.9149V53.1999C120.45 53.1999 120.45 46.8377 120.45 43.3532C120.45 39.8688 119.968 36.7888 119.004 34.1132C118.07 31.4377 116.608 29.3532 114.617 27.8599C112.657 26.3666 110.152 25.6199 107.104 25.6199C103.868 25.6199 101.208 26.4132 99.1235 27.9999C97.0391 29.5866 95.4835 31.7177 94.4569 34.3932C93.4613 37.0688 92.9635 40.0555 92.9635 43.3532C92.9635 46.6821 93.4613 49.6999 94.4569 52.4066C95.4835 55.0821 97.008 57.2132 99.0302 58.7999C101.084 60.3866 103.666 61.1799 106.777 61.1799ZM120.45 68.5999V32.3399H119.33V1.3999H129.13V68.5999H120.45Z" fill="white"/>
<path d="M61.6367 9.94013V0.466797H71.3901V9.94013H61.6367ZM61.6367 68.6001V18.2001H71.3901V68.6001H61.6367Z" fill="white"/>
<path d="M0 68.5999V1.3999H27.16C27.8133 1.3999 28.6222 1.43101 29.5867 1.49324C30.5511 1.52435 31.4689 1.61768 32.34 1.77324C36.0733 2.36435 39.1844 3.6399 41.6733 5.5999C44.1933 7.5599 46.0756 10.0332 47.32 13.0199C48.5644 16.0066 49.1867 19.3043 49.1867 22.9132C49.1867 28.2643 47.8178 32.8843 45.08 36.7732C42.3422 40.631 38.2356 43.0421 32.76 44.0066L28.7933 44.4732H9.75333V68.5999H0ZM39.2933 68.5999L26.04 41.2532L35.8867 38.7332L50.4467 68.5999H39.2933ZM9.75333 35.2332V44.4732H16.8V35.1399L26.7867 35.2332C27.4089 35.2332 28.0933 35.2021 28.84 35.1399C29.6178 35.0777 30.3489 34.9688 31.0333 34.8132C33.0244 34.3466 34.6267 33.491 35.84 32.2466C37.0533 30.971 37.9244 29.5088 38.4533 27.8599C38.9822 26.211 39.2467 24.5621 39.2467 22.9132C39.2467 21.2643 38.9822 19.631 38.4533 18.0132C37.9244 16.3643 37.0533 14.9177 35.84 13.6732C34.6267 12.3977 33.0244 11.5266 31.0333 11.0599C30.3489 10.8732 29.6178 10.7488 28.84 10.6866C28.0933 10.6243 27.4089 10.5932 26.7867 10.5932H9.75333V35.2332Z" fill="white"/>
</svg>
