<svg width="22" height="22" viewBox="0 0 22 22" fill="none" xmlns="http://www.w3.org/2000/svg">
<path fill-rule="evenodd" clip-rule="evenodd" d="M17.9667 5.92809L16.4084 3.85C15.8887 3.15792 15.0737 2.75 14.2084 2.75H7.79175C6.92641 2.75 6.1115 3.15792 5.59175 3.85L4.03341 5.92809C3.79508 6.24525 3.66675 6.63117 3.66675 7.02809V16.5C3.66675 18.0189 4.89783 19.25 6.41675 19.25H15.5834C17.1023 19.25 18.3334 18.0189 18.3334 16.5V7.02809C18.3334 6.63117 18.2051 6.24525 17.9667 5.92809Z" stroke="black" stroke-linecap="round" stroke-linejoin="round"/>
<path d="M13.75 9.16667C13.75 10.6856 12.5189 11.9167 11 11.9167C9.48108 11.9167 8.25 10.6856 8.25 9.16667" stroke="black" stroke-linecap="round" stroke-linejoin="round"/>
<path d="M18.2235 6.41667H3.77686" stroke="black" stroke-linecap="round" stroke-linejoin="round"/>
</svg>
