<svg width="60" height="60" viewBox="0 0 60 60" fill="none" xmlns="http://www.w3.org/2000/svg">
<path d="M37.5 17.4999H48.3075C49.33 17.4999 50.25 18.1224 50.6275 19.0724L54.6425 29.1074C54.8775 29.6974 55 30.3274 55 30.9624V45.8324C55 47.2124 53.88 48.3324 52.5 48.3324H47.9225" stroke="black" stroke-linecap="round" stroke-linejoin="round"/>
<path d="M40.0008 48.5498H20.4258" stroke="black" stroke-linecap="round" stroke-linejoin="round"/>
<path d="M55 34.9999H45V24.9999H53" stroke="black" stroke-linecap="round" stroke-linejoin="round"/>
<path d="M31.39 12.5001H35C36.38 12.5001 37.5 13.6201 37.5 15.0001V37.5001H5" stroke="black" stroke-linecap="round" stroke-linejoin="round"/>
<path d="M46.7606 45.7398C48.3081 47.2873 48.3081 49.7948 46.7606 51.3398C45.2131 52.8873 42.7056 52.8873 41.1606 51.3398C39.6131 49.7923 39.6131 47.2848 41.1606 45.7398C42.7081 44.1948 45.2156 44.1948 46.7606 45.7398" stroke="black" stroke-linecap="round" stroke-linejoin="round"/>
<path d="M19.2597 45.7398C20.8072 47.2873 20.8072 49.7948 19.2597 51.3398C17.7122 52.8873 15.2047 52.8873 13.6597 51.3398C12.1147 49.7923 12.1122 47.2848 13.6597 45.7398C15.2072 44.1948 17.7122 44.1948 19.2597 45.7398" stroke="black" stroke-linecap="round" stroke-linejoin="round"/>
<path d="M12.5 48.5401H7.5C6.12 48.5401 5 47.4201 5 46.0401V15.0001C5 13.6201 6.12 12.5001 7.5 12.5001H10.595" stroke="black" stroke-linecap="round" stroke-linejoin="round"/>
<path d="M20.9932 23.2949C15.2507 23.2949 10.5957 18.6399 10.5957 12.8974C10.5957 7.27238 15.3782 2.49488 21.0007 2.49988C26.7407 2.50488 31.3882 7.15738 31.3882 12.8974C31.3882 18.6374 26.7357 23.2949 20.9932 23.2949" stroke="black"/>
<path d="M25.6116 10.5879L19.8341 16.3654L16.3691 12.8979" stroke="black" stroke-linecap="round" stroke-linejoin="round"/>
</svg>
