<svg width="60" height="60" viewBox="0 0 60 60" fill="none" xmlns="http://www.w3.org/2000/svg">
<g style="mix-blend-mode:luminosity">
<path d="M25.4724 3.63958L11.7482 8.81022C8.58532 9.99287 6 13.7333 6 17.0888V37.5238C6 40.7692 8.14527 45.0322 10.7581 46.985L22.5846 55.8136C26.4626 58.729 32.8434 58.729 36.7213 55.8136L48.5478 46.985C51.1606 45.0322 53.3059 40.7692 53.3059 37.5238V17.0888C53.3059 13.7058 50.7206 9.96537 47.5577 8.78272L33.8335 3.63958C31.4957 2.78697 27.7552 2.78697 25.4724 3.63958Z" stroke="black" stroke-linecap="round" stroke-linejoin="round"/>
<path d="M23.8438 37.7001L22.6146 36.5001L36.1562 23.3001L37.3854 24.5001L23.8438 37.7001ZM34.3124 38.0001C33.6364 38.0001 33.0184 37.8401 32.4584 37.5201C31.9052 37.1935 31.4614 36.7601 31.1268 36.2201C30.7921 35.6735 30.6248 35.0668 30.6248 34.4001C30.6248 33.7468 30.7956 33.1468 31.137 32.6001C31.4784 32.0535 31.9292 31.6168 32.4891 31.2901C33.0491 30.9635 33.6569 30.8001 34.3124 30.8001C34.9885 30.8001 35.6065 30.9635 36.1665 31.2901C36.7264 31.6101 37.1703 32.0435 37.4981 32.5901C37.8327 33.1301 38 33.7335 38 34.4001C38 35.0668 37.8327 35.6735 37.4981 36.2201C37.1703 36.7601 36.7264 37.1935 36.1665 37.5201C35.6065 37.8401 34.9885 38.0001 34.3124 38.0001ZM34.3124 36.4301C34.688 36.4301 35.0329 36.3368 35.347 36.1501C35.6679 35.9635 35.9206 35.7168 36.105 35.4101C36.2962 35.1035 36.3918 34.7668 36.3918 34.4001C36.3918 34.0335 36.2962 33.6968 36.105 33.3901C35.9206 33.0768 35.6679 32.8301 35.347 32.6501C35.0329 32.4635 34.688 32.3701 34.3124 32.3701C33.9368 32.3701 33.592 32.4635 33.2778 32.6501C32.9637 32.8301 32.7111 33.0768 32.5198 33.3901C32.3286 33.6968 32.233 34.0335 32.233 34.4001C32.233 34.7668 32.3286 35.1035 32.5198 35.4101C32.7111 35.7168 32.9637 35.9635 33.2778 36.1501C33.592 36.3368 33.9368 36.4301 34.3124 36.4301ZM25.6876 30.2001C25.0115 30.2001 24.3935 30.0401 23.8335 29.7201C23.2736 29.3935 22.8263 28.9601 22.4917 28.4201C22.1639 27.8735 22 27.2668 22 26.6001C22 25.9468 22.1707 25.3468 22.5122 24.8001C22.8536 24.2535 23.3043 23.8168 23.8643 23.4901C24.4242 23.1635 25.032 23.0001 25.6876 23.0001C26.3636 23.0001 26.9782 23.1635 27.5314 23.4901C28.0913 23.8101 28.5386 24.2435 28.8732 24.7901C29.2079 25.3301 29.3752 25.9335 29.3752 26.6001C29.3752 27.2668 29.2079 27.8735 28.8732 28.4201C28.5386 28.9601 28.0913 29.3935 27.5314 29.7201C26.9782 30.0401 26.3636 30.2001 25.6876 30.2001ZM25.6876 28.6301C26.0632 28.6301 26.408 28.5368 26.7222 28.3501C27.0431 28.1635 27.2958 27.9168 27.4802 27.6101C27.6714 27.3035 27.767 26.9668 27.767 26.6001C27.767 26.2335 27.6714 25.8968 27.4802 25.5901C27.2958 25.2768 27.0431 25.0301 26.7222 24.8501C26.408 24.6635 26.0632 24.5701 25.6876 24.5701C25.312 24.5701 24.9671 24.6635 24.653 24.8501C24.3389 25.0301 24.0862 25.2768 23.895 25.5901C23.7038 25.8968 23.6082 26.2335 23.6082 26.6001C23.6082 26.9668 23.7038 27.3035 23.895 27.6101C24.0862 27.9168 24.3389 28.1635 24.653 28.3501C24.9671 28.5368 25.312 28.6301 25.6876 28.6301Z" fill="black"/>
</g>
</svg>
