<svg width="18" height="18" viewBox="0 0 18 18" fill="none" xmlns="http://www.w3.org/2000/svg">
<path fill-rule="evenodd" clip-rule="evenodd" d="M14.6995 4.85025L13.4245 3.15C12.9993 2.58375 12.3325 2.25 11.6245 2.25H6.37451C5.66651 2.25 4.99976 2.58375 4.57451 3.15L3.29951 4.85025C3.10451 5.10975 2.99951 5.4255 2.99951 5.75025V13.5C2.99951 14.7428 4.00676 15.75 5.24951 15.75H12.7495C13.9923 15.75 14.9995 14.7428 14.9995 13.5V5.75025C14.9995 5.4255 14.8945 5.10975 14.6995 4.85025Z" stroke="white" stroke-linecap="round" stroke-linejoin="round"/>
<path d="M11.25 7.5C11.25 8.74275 10.2428 9.75 9 9.75C7.75725 9.75 6.75 8.74275 6.75 7.5" stroke="white" stroke-linecap="round" stroke-linejoin="round"/>
<path d="M14.9103 5.25H3.09033" stroke="white" stroke-linecap="round" stroke-linejoin="round"/>
</svg>
