<svg width="11" height="7" viewBox="0 0 11 7" fill="none" xmlns="http://www.w3.org/2000/svg">
<path d="M10.1277 1.55885C10.1277 1.55885 10.0355 0.905328 9.7514 0.618371C9.39173 0.240699 8.98956 0.238847 8.80512 0.216631C7.4844 0.120361 5.50141 0.120361 5.50141 0.120361H5.49772C5.49772 0.120361 3.51475 0.120361 2.19401 0.216631C2.00955 0.238847 1.60742 0.240699 1.24772 0.618371C0.96365 0.905328 0.873264 1.55885 0.873264 1.55885C0.873264 1.55885 0.777344 2.32716 0.777344 3.09361V3.81193C0.777344 4.57838 0.871419 5.34669 0.871419 5.34669C0.871419 5.34669 0.96365 6.0002 1.24588 6.28714C1.60558 6.66486 2.0778 6.65186 2.28809 6.69258C3.04438 6.76481 5.49957 6.78703 5.49957 6.78703C5.49957 6.78703 7.4844 6.78331 8.80512 6.68892C8.98956 6.6667 9.39173 6.66486 9.7514 6.28714C10.0355 6.0002 10.1277 5.34669 10.1277 5.34669C10.1277 5.34669 10.2218 4.58023 10.2218 3.81193V3.09361C10.2218 2.32716 10.1277 1.55885 10.1277 1.55885ZM4.52377 4.68391V2.01983L7.07484 3.3565L4.52377 4.68391Z" fill="black"/>
</svg>
