<svg width="11" height="11" viewBox="0 0 11 11" fill="none" xmlns="http://www.w3.org/2000/svg">
<path d="M8.0125 2.25752C7.89198 2.25752 7.77417 2.29326 7.67396 2.36022C7.57375 2.42718 7.49561 2.52235 7.4495 2.63369C7.4034 2.74505 7.39134 2.86757 7.41484 2.98578C7.43833 3.10398 7.49636 3.21257 7.5816 3.29779C7.66685 3.38301 7.77539 3.44105 7.8936 3.46456C8.01182 3.48807 8.13437 3.47601 8.24569 3.42988C8.35707 3.38376 8.4522 3.30566 8.51916 3.20544C8.58612 3.10523 8.62187 2.98742 8.62187 2.86689C8.62187 2.70527 8.55769 2.55028 8.4434 2.436C8.3291 2.32172 8.17412 2.25752 8.0125 2.25752ZM10.3484 3.48643C10.3386 3.06509 10.2597 2.64823 10.1148 2.25244C9.98572 1.9138 9.78477 1.60715 9.52578 1.35361C9.27431 1.09332 8.96698 0.893623 8.62695 0.769629C8.23221 0.620414 7.81486 0.539696 7.39297 0.530957C6.85469 0.500488 6.68203 0.500488 5.30078 0.500488C3.91953 0.500488 3.74687 0.500488 3.20859 0.530957C2.78668 0.539696 2.36936 0.620414 1.97461 0.769629C1.63523 0.894883 1.32813 1.09441 1.07578 1.35361C0.81549 1.60507 0.615791 1.91243 0.491797 2.25244C0.342582 2.64719 0.261864 3.06451 0.253125 3.48643C0.222656 4.02471 0.222656 4.19736 0.222656 5.57861C0.222656 6.95986 0.222656 7.13252 0.253125 7.6708C0.261864 8.09269 0.342582 8.51005 0.491797 8.90479C0.615791 9.24482 0.81549 9.55214 1.07578 9.80361C1.32813 10.0628 1.63523 10.2623 1.97461 10.3876C2.36936 10.5368 2.78668 10.6175 3.20859 10.6263C3.74687 10.6567 3.91953 10.6567 5.30078 10.6567C6.68203 10.6567 6.85469 10.6567 7.39297 10.6263C7.81486 10.6175 8.23221 10.5368 8.62695 10.3876C8.96698 10.2636 9.27431 10.0639 9.52578 9.80361C9.78592 9.55099 9.98708 9.24407 10.1148 8.90479C10.2597 8.50896 10.3386 8.09215 10.3484 7.6708C10.3484 7.13252 10.3789 6.95986 10.3789 5.57861C10.3789 4.19736 10.3789 4.02471 10.3484 3.48643ZM9.43437 7.60986C9.43065 7.93222 9.37229 8.2516 9.26172 8.55439C9.1806 8.77539 9.0504 8.97507 8.88086 9.13838C8.71612 9.30623 8.51686 9.43616 8.29688 9.51924C7.99408 9.62981 7.6747 9.68817 7.35234 9.69189C6.84453 9.71729 6.65664 9.72236 5.32109 9.72236C3.98555 9.72236 3.79766 9.72236 3.28984 9.69189C2.95514 9.69819 2.62187 9.6466 2.30469 9.53955C2.09434 9.45227 1.90421 9.32261 1.74609 9.15869C1.57755 8.99558 1.44894 8.79571 1.37031 8.57471C1.24633 8.26758 1.17757 7.94096 1.16719 7.60986C1.16719 7.10205 1.13672 6.91416 1.13672 5.57861C1.13672 4.24307 1.13672 4.05518 1.16719 3.54736C1.16946 3.21782 1.22962 2.89124 1.34492 2.58252C1.43432 2.36818 1.57154 2.17711 1.74609 2.02393C1.90037 1.84933 2.09105 1.71065 2.30469 1.61768C2.61422 1.50598 2.94047 1.4476 3.26953 1.44502C3.77734 1.44502 3.96523 1.41455 5.30078 1.41455C6.63633 1.41455 6.82422 1.41455 7.33203 1.44502C7.65439 1.44872 7.97377 1.50709 8.27656 1.61768C8.50731 1.70332 8.71443 1.84256 8.88086 2.02393C9.04729 2.17991 9.17729 2.37063 9.26172 2.58252C9.37459 2.89174 9.43302 3.21819 9.43437 3.54736C9.45977 4.05518 9.46484 4.24307 9.46484 5.57861C9.46484 6.91416 9.45977 7.10205 9.43437 7.60986ZM5.30078 2.97354C4.78576 2.97454 4.2826 3.12817 3.85486 3.41503C3.42713 3.70189 3.09402 4.10911 2.89763 4.5852C2.70123 5.06131 2.65037 5.58494 2.75146 6.08995C2.85255 6.59494 3.10106 7.05865 3.46559 7.42245C3.83012 7.78631 4.2943 8.03392 4.7995 8.13399C5.30469 8.23413 5.82823 8.1822 6.30395 7.9849C6.77967 7.7876 7.18625 7.45366 7.47225 7.0254C7.75826 6.5971 7.91094 6.09363 7.91094 5.57861C7.91161 5.23589 7.84452 4.89642 7.7135 4.57973C7.58255 4.26303 7.39019 3.97535 7.14766 3.73325C6.90506 3.49114 6.617 3.29939 6.30005 3.16901C5.9831 3.03863 5.6435 2.97219 5.30078 2.97354ZM5.30078 7.26963C4.96633 7.26963 4.63939 7.17044 4.3613 6.98464C4.08322 6.79883 3.86647 6.53473 3.73849 6.22574C3.6105 5.91674 3.57701 5.57674 3.64226 5.24871C3.70751 4.92068 3.86856 4.61938 4.10505 4.38288C4.34154 4.14639 4.64285 3.98534 4.97088 3.92009C5.29891 3.85484 5.63891 3.88833 5.9479 4.01632C6.2569 4.14431 6.521 4.36105 6.70681 4.63913C6.8926 4.91722 6.9918 5.24416 6.9918 5.57861C6.9918 5.80068 6.94806 6.02057 6.86308 6.22574C6.77811 6.4309 6.65353 6.61732 6.49651 6.77434C6.33949 6.93136 6.15307 7.05594 5.9479 7.14091C5.74274 7.22589 5.52285 7.26963 5.30078 7.26963Z" fill="black"/>
</svg>
