<svg width="7" height="11" viewBox="0 0 7 11" fill="none" xmlns="http://www.w3.org/2000/svg">
<path d="M3.77865 4.43552H6.27865L6.00087 5.54663H3.77865V10.5466H2.66753V5.54663H0.445312V4.43552H2.66753V3.39552C2.66753 2.40496 2.77087 2.04552 2.9642 1.6833C3.15365 1.32541 3.44632 1.03275 3.8042 0.843297C4.16642 0.649964 4.52587 0.546631 5.51642 0.546631C5.80642 0.546631 6.06087 0.574409 6.27865 0.629964V1.65774H5.51642C4.78087 1.65774 4.55698 1.70108 4.32864 1.8233C4.15976 1.9133 4.0342 2.03885 3.9442 2.20774C3.82198 2.43608 3.77865 2.65996 3.77865 3.39552V4.43552Z" fill="black" stroke="black" stroke-width="0.8"/>
</svg>
