<svg width="141" height="40" viewBox="0 0 141 40" fill="none" xmlns="http://www.w3.org/2000/svg">
<g style="mix-blend-mode:luminosity" opacity="0.5">
<path d="M20.1922 16.9664C24.1376 15.1295 27.2254 12.0125 28.9979 8.1163C27.8543 6.94742 26.3676 6.11251 24.7666 5.61156L23.9089 5.33325C23.8517 5.44457 23.7945 5.61156 23.7945 5.72289C22.4222 9.50783 19.6204 12.5691 15.8466 14.2946C13.2163 15.5192 11.2722 17.7456 10.3573 20.4173L10.0714 21.2523C10.1857 21.3079 10.3573 21.3636 10.4716 21.3636C11.5581 21.7532 12.6445 22.2541 13.6738 22.8664C15.1032 20.3617 17.3904 18.2466 20.1922 16.9664Z" fill="#087443"/>
<path d="M36.7743 17.1895C34.6587 20.3065 31.7425 22.8112 28.1402 24.4811C25.224 25.8169 22.9941 28.3217 21.9648 31.3274L21.6788 32.2736C22.7653 33.2198 24.0805 33.9434 25.5099 34.3887L26.3676 34.667C26.4248 34.5557 26.482 34.3887 26.482 34.2774C27.8543 30.4925 30.6561 27.4311 34.43 25.7056C37.0602 24.4811 39.0615 22.2546 39.9192 19.5829L40.2051 18.748C39.0043 18.414 37.8607 17.8574 36.7743 17.1895Z" fill="#16B364"/>
<path d="M19.3917 29.3789C20.8211 26.0392 23.4514 23.3118 26.825 21.7533C29.9127 20.3061 32.4858 18.0797 34.2584 15.3523C32.9433 14.1277 31.8569 12.7362 31.0563 11.0664C28.9407 14.8513 25.6243 17.9127 21.5645 19.8052C19.2202 20.8627 17.3332 22.6995 16.1896 24.926C17.4476 26.0949 18.4768 27.542 19.2773 29.1562C19.2773 29.1562 19.3345 29.2675 19.3917 29.3789Z" fill="#099250"/>
<path d="M47.0194 26.667H56.6553V24.067H50.1218V12.667H47.0194V26.667Z" fill="white"/>
<path d="M66.7224 16.5867H63.846V22.1067C63.846 23.3867 62.9626 24.3467 61.7093 24.3467C60.5382 24.3467 59.7163 23.4667 59.7163 22.2467V16.5867H56.8605V22.8667C56.8605 25.1667 58.3809 26.8267 60.7025 26.8267C62.1202 26.8267 63.2707 26.2267 63.846 25.2667V26.6667H66.7224V16.5867Z" fill="white"/>
<path d="M67.7911 26.6668H70.6675V20.9468C70.6675 19.6468 71.4277 18.7868 72.6194 18.7868C73.7288 18.7868 74.4274 19.6468 74.4274 20.9468V26.6668H77.3038V20.9468C77.3038 19.6468 78.064 18.7868 79.2556 18.7868C80.3651 18.7868 81.0842 19.6468 81.0842 20.9468V26.6668H83.9401V20.0668C83.9401 18.0468 82.4813 16.4268 80.2213 16.4268C78.5571 16.4268 77.2627 17.2868 76.7696 18.2668C76.2765 17.0668 75.2287 16.4268 73.6056 16.4268C72.2085 16.4268 71.2223 17.0868 70.6675 18.0068V16.5868H67.7911V26.6668Z" fill="white"/>
<path d="M84.92 12.2065V15.1465H87.9608V12.2065H84.92ZM85.0022 26.6665H87.8786V16.5865H85.0022V26.6665Z" fill="white"/>
<path d="M88.9513 26.6668H91.8277V21.1468C91.8277 19.8468 92.7112 18.9068 93.9644 18.9068C95.1561 18.9068 95.9574 19.7868 95.9574 21.0068V26.6668H98.8338V20.3868C98.8338 18.0668 97.3134 16.4268 94.9712 16.4268C93.5535 16.4268 92.403 17.0068 91.8277 17.9868V16.5868H88.9513V26.6668Z" fill="white"/>
<path d="M104.832 26.8268C108.017 26.8268 110.298 24.6268 110.298 21.6268C110.298 18.6268 108.017 16.4268 104.832 16.4268C101.647 16.4268 99.3673 18.6268 99.3673 21.6268C99.3673 24.6268 101.647 26.8268 104.832 26.8268ZM104.832 24.4268C103.291 24.4268 102.244 23.2868 102.244 21.6268C102.244 19.9468 103.291 18.8068 104.832 18.8068C106.373 18.8068 107.421 19.9468 107.421 21.6268C107.421 23.2868 106.373 24.4268 104.832 24.4268Z" fill="white"/>
<path d="M120.716 16.5867H117.839V22.1067C117.839 23.3867 116.956 24.3467 115.703 24.3467C114.532 24.3467 113.71 23.4667 113.71 22.2467V16.5867H110.854V22.8667C110.854 25.1667 112.374 26.8267 114.696 26.8267C116.114 26.8267 117.264 26.2267 117.839 25.2667V26.6667H120.716V16.5867Z" fill="white"/>
<path d="M125.565 26.8268C127.989 26.8268 129.592 25.5668 129.592 23.6468C129.592 19.0868 123.921 21.4268 123.921 19.3668C123.921 18.7268 124.476 18.3868 125.277 18.3868C126.057 18.3868 126.859 18.8468 126.982 19.7068H129.469C129.366 17.7268 127.681 16.4268 125.195 16.4268C123.078 16.4268 121.497 17.6868 121.497 19.4668C121.497 23.7068 127.065 21.6868 127.065 23.7468C127.065 24.3068 126.448 24.7268 125.565 24.7268C124.496 24.7268 123.777 24.1668 123.675 23.2668H121.209C121.312 25.4468 123.038 26.8268 125.565 26.8268Z" fill="white"/>
</g>
</svg>
