<svg width="140" height="40" viewBox="0 0 140 40" fill="none" xmlns="http://www.w3.org/2000/svg">
<g style="mix-blend-mode:luminosity" opacity="0.5">
<path fill-rule="evenodd" clip-rule="evenodd" d="M25.611 5.44215C25.2632 5.36857 24.9045 5.36857 24.5567 5.44215C24.1547 5.52719 23.7954 5.73421 23.5097 5.89879L23.4318 5.94354L13.7502 11.4762C13.7234 11.4915 13.6958 11.5071 13.6675 11.5232C13.3651 11.6945 12.9849 11.9099 12.6929 12.2358C12.4405 12.5176 12.2495 12.8516 12.1326 13.2154C11.9974 13.6362 11.999 14.0827 12.0003 14.4379C12.0004 14.471 12.0005 14.5034 12.0005 14.5349V25.4588C12.0005 25.4903 12.0004 25.5227 12.0003 25.5559C11.999 25.911 11.9974 26.3575 12.1326 26.7783C12.2495 27.1422 12.4405 27.4761 12.6929 27.7579C12.9849 28.0838 13.3652 28.2993 13.6675 28.4706C13.6958 28.4866 13.7234 28.5022 13.7502 28.5175L23.4318 34.0502L23.5097 34.0949C23.7954 34.2595 24.1547 34.4665 24.5567 34.5516C24.9045 34.6251 25.2632 34.6251 25.611 34.5516C26.013 34.4665 26.3723 34.2595 26.658 34.0949L26.7358 34.0502L36.4175 28.5175C36.4293 28.5108 36.4413 28.5039 36.4535 28.497C36.4688 28.4883 36.4843 28.4795 36.5001 28.4706C36.8025 28.2993 37.1827 28.0838 37.4747 27.7579C37.7272 27.4761 37.9182 27.1422 38.0351 26.7783C38.1703 26.3575 38.1687 25.911 38.1674 25.5559C38.1673 25.5227 38.1672 25.4903 38.1672 25.4588V14.5349C38.1672 14.5034 38.1673 14.4711 38.1674 14.4379C38.1687 14.0827 38.1703 13.6362 38.0351 13.2154C37.9182 12.8516 37.7272 12.5176 37.4747 12.2358C37.1827 11.9099 36.8025 11.6945 36.5001 11.5232L36.499 11.5225C36.4712 11.5067 36.4439 11.4913 36.4175 11.4762L26.7358 5.94354L26.658 5.89879C26.3723 5.73421 26.013 5.52719 25.611 5.44215ZM24.7026 8.29639C24.9009 8.18309 25.0021 8.12584 25.0776 8.08838L25.0838 8.0853L25.0901 8.08838C25.1656 8.12584 25.2668 8.18309 25.4651 8.29639L34.1648 13.2679L25.0838 18.4573L16.0029 13.2679L24.7026 8.29639ZM14.6172 15.5551L23.7755 20.7887V31.1675L15.0209 26.1647C14.8117 26.0451 14.7048 25.9834 14.6298 25.9342L14.6235 25.9301L14.623 25.9224C14.6177 25.8311 14.6172 25.7051 14.6172 25.4588V15.5551Z" fill="white"/>
<path d="M50.0749 24.4952H54.2397V27.0197H46.8955V13.594H50.0749V24.4952Z" fill="white"/>
<path d="M57.169 15.2383C56.6112 15.2383 56.1526 15.0726 55.7931 14.7411C55.4461 14.3968 55.2725 13.9761 55.2725 13.4788C55.2725 12.9688 55.4461 12.5481 55.7931 12.2166C56.1526 11.8723 56.6112 11.7002 57.169 11.7002C57.7144 11.7002 58.1606 11.8723 58.5077 12.2166C58.8672 12.5481 59.0469 12.9688 59.0469 13.4788C59.0469 13.9761 58.8672 14.3968 58.5077 14.7411C58.1606 15.0726 57.7144 15.2383 57.169 15.2383ZM58.7494 16.3476V27.0193H55.57V16.3476H58.7494Z" fill="white"/>
<path d="M64.8091 16.1943C65.5404 16.1943 66.1788 16.3473 66.7242 16.6533C67.282 16.9593 67.7097 17.3609 68.0072 17.8581V16.3473H71.1865V26.9999C71.1865 27.9816 70.9943 28.8678 70.6101 29.6583C70.2382 30.4615 69.6618 31.099 68.8809 31.5708C68.1124 32.0425 67.1518 32.2784 65.9991 32.2784C64.462 32.2784 63.2164 31.9023 62.262 31.15C61.3076 30.4105 60.7622 29.4033 60.6258 28.1283H63.768C63.8672 28.5363 64.1027 28.855 64.4745 29.0845C64.8464 29.3268 65.305 29.4479 65.8504 29.4479C66.5074 29.4479 67.028 29.2503 67.4122 28.855C67.8089 28.4725 68.0072 27.8541 68.0072 26.9999V25.489C67.6973 25.9863 67.2696 26.3943 66.7242 26.713C66.1788 27.019 65.5404 27.172 64.8091 27.172C63.9538 27.172 63.1792 26.9489 62.4851 26.5026C61.791 26.0436 61.2393 25.3998 60.8302 24.571C60.4336 23.7295 60.2354 22.7605 60.2354 21.664C60.2354 20.5675 60.4336 19.6049 60.8302 18.7761C61.2393 17.9474 61.791 17.3099 62.4851 16.8636C63.1792 16.4174 63.9538 16.1943 64.8091 16.1943ZM68.0072 21.6831C68.0072 20.8671 67.784 20.2233 67.3377 19.7515C66.9039 19.2798 66.371 19.0439 65.7388 19.0439C65.1067 19.0439 64.5675 19.2798 64.1213 19.7515C63.6874 20.2105 63.4705 20.848 63.4705 21.664C63.4705 22.48 63.6874 23.1303 64.1213 23.6148C64.5675 24.0865 65.1067 24.3224 65.7388 24.3224C66.371 24.3224 66.9039 24.0865 67.3377 23.6148C67.784 23.143 68.0072 22.4991 68.0072 21.6831Z" fill="white"/>
<path d="M79.6781 16.2327C80.868 16.2327 81.8225 16.6407 82.5414 17.4567C83.2603 18.26 83.6198 19.3692 83.6198 20.7845V27.0192H80.459V21.2243C80.459 20.5103 80.2793 19.9557 79.9198 19.5605C79.5603 19.1652 79.0769 18.9676 78.4696 18.9676C77.8622 18.9676 77.3788 19.1652 77.0193 19.5605C76.6599 19.9557 76.4801 20.5103 76.4801 21.2243V27.0192H73.3007V12.8667H76.4801V17.7818C76.8024 17.3101 77.2424 16.934 77.8002 16.6535C78.358 16.373 78.984 16.2327 79.6781 16.2327Z" fill="white"/>
<path d="M91.4255 24.2462V27.0193H89.808C88.6552 27.0193 87.7566 26.7324 87.112 26.1587C86.4675 25.5722 86.1452 24.6223 86.1452 23.3091V19.0633H84.8809V16.3476H86.1452V13.7466H89.3246V16.3476H91.407V19.0633H89.3246V23.3473C89.3246 23.6661 89.3989 23.8956 89.5477 24.0358C89.6964 24.1761 89.9443 24.2462 90.2914 24.2462H91.4255Z" fill="white"/>
<path d="M96.1901 17.8583C96.4875 17.3611 96.9152 16.9595 97.473 16.6535C98.0307 16.3475 98.6691 16.1945 99.388 16.1945C100.243 16.1945 101.018 16.4176 101.712 16.8638C102.406 17.3101 102.952 17.9476 103.348 18.7763C103.757 19.6051 103.962 20.5677 103.962 21.6642C103.962 22.7607 103.757 23.7297 103.348 24.5712C102.952 25.4 102.406 26.0438 101.712 26.5028C101.018 26.9491 100.243 27.1722 99.388 27.1722C98.6567 27.1722 98.0183 27.0256 97.473 26.7323C96.9276 26.4263 96.4999 26.0247 96.1901 25.5275V27.0192H93.0107V12.8667H96.1901V17.8583ZM100.727 21.6642C100.727 20.8482 100.503 20.2107 100.057 19.7517C99.6235 19.28 99.0843 19.0441 98.4398 19.0441C97.8076 19.0441 97.2684 19.28 96.8222 19.7517C96.3884 20.2235 96.1715 20.8673 96.1715 21.6833C96.1715 22.4993 96.3884 23.1432 96.8222 23.615C97.2684 24.0867 97.8076 24.3226 98.4398 24.3226C99.0719 24.3226 99.6111 24.0867 100.057 23.615C100.503 23.1305 100.727 22.4802 100.727 21.6642Z" fill="white"/>
<path d="M110.166 27.172C109.15 27.172 108.233 26.9489 107.415 26.5026C106.609 26.0564 105.971 25.4189 105.5 24.5901C105.041 23.7614 104.812 22.7924 104.812 21.6831C104.812 20.5866 105.047 19.624 105.518 18.7953C105.989 17.9538 106.634 17.3099 107.452 16.8636C108.27 16.4174 109.187 16.1943 110.204 16.1943C111.22 16.1943 112.137 16.4174 112.955 16.8636C113.773 17.3099 114.418 17.9538 114.889 18.7953C115.36 19.624 115.595 20.5866 115.595 21.6831C115.595 22.7796 115.354 23.7486 114.87 24.5901C114.399 25.4189 113.749 26.0564 112.918 26.5026C112.1 26.9489 111.183 27.172 110.166 27.172ZM110.166 24.3415C110.774 24.3415 111.288 24.112 111.71 23.653C112.143 23.194 112.36 22.5374 112.36 21.6831C112.36 20.8289 112.15 20.1723 111.728 19.7133C111.319 19.2543 110.811 19.0248 110.204 19.0248C109.584 19.0248 109.069 19.2543 108.66 19.7133C108.251 20.1595 108.047 20.8161 108.047 21.6831C108.047 22.5374 108.245 23.194 108.642 23.653C109.051 24.112 109.559 24.3415 110.166 24.3415Z" fill="white"/>
<path d="M123.232 27.0191L121.242 24.0547L119.569 27.0191H116.129L119.551 21.5685L116.036 16.3474H119.606L121.596 19.2926L123.269 16.3474H126.709L123.232 21.7215L126.802 27.0191H123.232Z" fill="white"/>
</g>
</svg>
