<svg width="140" height="40" viewBox="0 0 140 40" fill="none" xmlns="http://www.w3.org/2000/svg">
<g style="mix-blend-mode:luminosity" opacity="0.5">
<path d="M40.7771 20.1771C40.7771 27.9501 34.4521 34.2605 26.6386 34.2605C18.825 34.2605 12.5 27.9501 12.5 20.1771C12.5 12.4041 18.825 6.09375 26.6386 6.09375C34.4521 6.09375 40.7771 12.4041 40.7771 20.1771Z" stroke="#6927DA" stroke-width="3"/>
<path d="M32.1104 25.6295C29.2134 28.5162 25.9464 30.3845 23.0656 31.1226C20.147 31.8705 17.9195 31.4093 16.643 30.1373C15.3665 28.8653 14.9036 26.6457 15.6541 23.7374C16.3949 20.8668 18.2698 17.6112 21.1668 14.7245C24.0637 11.8378 27.3308 9.96945 30.2116 9.23129C33.1302 8.48344 35.3577 8.94468 36.6342 10.2167C37.9106 11.4887 38.3735 13.7083 37.623 16.6166C36.8822 19.4872 35.0074 22.7427 32.1104 25.6295Z" stroke="#6927DA" stroke-width="3"/>
<path d="M32.1102 14.7245C35.0072 17.6112 36.8821 20.8667 37.6229 23.7374C38.3734 26.6456 37.9105 28.8653 36.634 30.1373C35.3575 31.4092 33.13 31.8705 30.2115 31.1226C27.3306 30.3845 24.0636 28.5162 21.1666 25.6294C18.2697 22.7427 16.3948 19.4872 15.654 16.6166C14.9035 13.7083 15.3664 11.4886 16.6428 10.2167C17.9193 8.94469 20.1468 8.48344 23.0654 9.23129C25.9462 9.96945 29.2133 11.8377 32.1102 14.7245Z" stroke="#6927DA" stroke-width="3"/>
<path d="M55.6766 27.2536C59.0247 27.2536 61.2852 25.5111 61.2852 22.7273C61.2852 16.8411 53.4374 19.3486 53.4374 16.2461C53.4374 15.3748 54.2265 14.7798 55.4847 14.7798C56.9135 14.7798 57.8091 15.5448 57.9158 16.7136H60.9653C60.88 13.8873 58.7048 12.0386 55.4847 12.0386C52.4565 12.0386 50.3239 13.7811 50.3239 16.2461C50.3239 22.0898 58.065 19.8586 58.065 22.7698C58.065 23.8961 57.1054 24.4911 55.6766 24.4911C54.0985 24.4911 53.0962 23.5348 52.9683 22.0261H49.8974C50.0254 25.1923 52.2859 27.2536 55.6766 27.2536Z" fill="white"/>
<path d="M62.0107 31.4181H64.9749V26.1268C65.5507 26.8493 66.5956 27.2531 67.8112 27.2531C70.9033 27.2531 72.9932 25.0643 72.9932 21.7281C72.9932 18.3918 71.0739 16.2031 68.0671 16.2031C66.6809 16.2031 65.6147 16.7131 64.9749 17.5418V16.3731H62.0107V31.4181ZM67.4486 24.7031C65.8492 24.7031 64.8043 23.5131 64.8043 21.7281C64.8043 19.9218 65.8492 18.7318 67.4486 18.7318C69.0054 18.7318 70.0716 19.9218 70.0716 21.7281C70.0716 23.5131 69.0054 24.7031 67.4486 24.7031Z" fill="white"/>
<path d="M73.7099 27.0835H76.6742V21.2185C76.6742 19.8372 77.5911 18.8385 78.892 18.8385C80.1289 18.8385 80.9819 19.7735 80.9819 21.0697V27.0835H83.9461V20.411C83.9461 17.946 82.368 16.2035 79.9583 16.2035C78.4655 16.2035 77.2926 16.8197 76.6742 17.861V11.7197H73.7099V27.0835Z" fill="white"/>
<path d="M92.2384 23.4493C92.0038 24.3631 91.2148 24.8306 90.0206 24.8306C88.5278 24.8306 87.5682 23.8956 87.3549 22.3868H95.0747C95.096 22.1531 95.1173 21.8343 95.1173 21.4306C95.1173 18.9868 93.6032 16.2031 89.8073 16.2031C86.1607 16.2031 84.4973 18.9868 84.4973 21.7068C84.4973 24.4056 86.3739 27.2531 90.0206 27.2531C92.6649 27.2531 94.7121 25.7656 95.1386 23.4493H92.2384ZM89.8073 18.3706C91.2361 18.3706 92.0678 19.3268 92.1531 20.5168H87.3975C87.6535 19.0293 88.4638 18.3706 89.8073 18.3706Z" fill="white"/>
<path d="M102.891 18.8385V16.3735H101.362C100.061 16.3735 99.2509 16.8197 98.6751 18.1585V16.3735H95.6895V27.0835H98.6751V21.8772C98.6751 20.0497 99.3362 18.8385 100.807 18.8385H102.891Z" fill="white"/>
<path d="M113.128 16.3735H110.142V22.2385C110.142 23.5985 109.225 24.6185 107.924 24.6185C106.709 24.6185 105.856 23.6835 105.856 22.3872V16.3735H102.891V23.046C102.891 25.4897 104.469 27.2535 106.879 27.2535C108.351 27.2535 109.545 26.616 110.142 25.596V27.0835H113.128V16.3735Z" fill="white"/>
<path d="M114.407 27.0835H117.371V11.7197H114.407V27.0835Z" fill="white"/>
<path d="M125.834 23.4493C125.599 24.3631 124.81 24.8306 123.616 24.8306C122.123 24.8306 121.164 23.8956 120.951 22.3868H128.67C128.692 22.1531 128.713 21.8343 128.713 21.4306C128.713 18.9868 127.199 16.2031 123.403 16.2031C119.756 16.2031 118.093 18.9868 118.093 21.7068C118.093 24.4056 119.97 27.2531 123.616 27.2531C126.261 27.2531 128.308 25.7656 128.734 23.4493H125.834ZM123.403 18.3706C124.832 18.3706 125.663 19.3268 125.749 20.5168H120.993C121.249 19.0293 122.059 18.3706 123.403 18.3706Z" fill="white"/>
</g>
</svg>
