<svg width="22" height="22" viewBox="0 0 22 22" fill="none" xmlns="http://www.w3.org/2000/svg">
<path fill-rule="evenodd" clip-rule="evenodd" d="M17.9666 5.92808L16.4083 3.85C15.8885 3.15792 15.0736 2.75 14.2083 2.75H7.79163C6.92629 2.75 6.11138 3.15792 5.59163 3.85L4.03329 5.92808C3.79496 6.24525 3.66663 6.63117 3.66663 7.02808V16.5C3.66663 18.0189 4.89771 19.25 6.41663 19.25H15.5833C17.1022 19.25 18.3333 18.0189 18.3333 16.5V7.02808C18.3333 6.63117 18.205 6.24525 17.9666 5.92808Z" stroke="white" stroke-linecap="round" stroke-linejoin="round"/>
<path d="M13.75 9.16666C13.75 10.6856 12.5189 11.9167 11 11.9167C9.48108 11.9167 8.25 10.6856 8.25 9.16666" stroke="white" stroke-linecap="round" stroke-linejoin="round"/>
<path d="M18.2233 6.41667H3.77661" stroke="white" stroke-linecap="round" stroke-linejoin="round"/>
</svg>
