<svg width="140" height="40" viewBox="0 0 140 40" fill="none" xmlns="http://www.w3.org/2000/svg">
<g style="mix-blend-mode:luminosity" opacity="0.5">
<path d="M23.1426 26.679C29.2967 26.679 34.2855 21.6955 34.2855 15.548C34.2855 14.8513 34.2214 14.1695 34.0988 13.5083C33.4369 13.3858 32.7544 13.3218 32.0569 13.3218C25.9029 13.3218 20.9141 18.3053 20.9141 24.4528C20.9141 25.1495 20.9781 25.8312 21.1007 26.4925C21.7627 26.6149 22.4452 26.679 23.1426 26.679Z" fill="#175CD3"/>
<path fill-rule="evenodd" clip-rule="evenodd" d="M21.101 26.4924C15.9221 25.5343 12 20.9987 12 15.5479C12 9.40048 16.9888 4.41699 23.1429 4.41699C28.5994 4.41699 33.14 8.3349 34.099 13.5082C33.4371 13.3858 32.7546 13.3217 32.0571 13.3217C25.9031 13.3217 20.9143 18.3052 20.9143 24.4527C20.9143 25.1494 20.9784 25.8312 21.101 26.4924Z" fill="#1570EF"/>
<path fill-rule="evenodd" clip-rule="evenodd" d="M23.1425 26.6789C29.2965 26.6789 34.2853 21.6954 34.2853 15.548C34.2853 14.8513 34.2212 14.1695 34.0986 13.5083C39.2775 14.4663 43.1996 19.002 43.1996 24.4528C43.1996 30.6002 38.2108 35.5837 32.0567 35.5837C26.6002 35.5837 22.0596 31.6658 21.1006 26.4925C21.7625 26.6149 22.445 26.6789 23.1425 26.6789Z" fill="#2E90FA"/>
<path d="M59.8993 27.2536C63.7071 27.2536 66.4513 25.1073 66.7278 21.9198H63.5369C63.2817 23.4498 61.8138 24.4911 59.8993 24.4911C57.4955 24.4911 55.6448 22.8336 55.6448 19.6461C55.6448 16.4586 57.4955 14.7798 59.8993 14.7798C61.7713 14.7798 63.2391 15.8211 63.4518 17.3723H66.7917C66.3875 14.1636 63.6433 12.0386 59.8993 12.0386C55.9213 12.0386 52.4326 14.6311 52.4326 19.6461C52.4326 24.6611 55.8575 27.2536 59.8993 27.2536Z" fill="white"/>
<path d="M72.6494 16.2036C69.7138 16.2036 67.9694 17.9248 67.8418 20.0711H70.4796C70.5222 19.1786 71.1816 18.3711 72.4793 18.3711C73.6918 18.3711 74.3938 18.9873 74.3938 19.8798C74.3938 20.3261 74.1173 20.6661 73.5854 20.6661H71.7773C69.4373 20.6661 67.8631 21.9411 67.8631 24.0448C67.8631 25.8723 69.2884 27.2536 71.3731 27.2536C72.8409 27.2536 74.0322 26.5948 74.3938 25.5961V27.0836H77.3294V20.1986C77.3294 17.7761 75.3511 16.2036 72.6494 16.2036ZM72.1176 25.1073C71.288 25.1073 70.6924 24.6186 70.6924 23.9173C70.6924 23.0886 71.3305 22.5361 72.224 22.5361H74.3938V22.6848C74.3938 24.0448 73.5642 25.1073 72.1176 25.1073Z" fill="white"/>
<path d="M79.3166 31.4186H82.2735V26.1273C82.8479 26.8498 83.8902 27.2536 85.1028 27.2536C88.1873 27.2536 90.2721 25.0648 90.2721 21.7286C90.2721 18.3923 88.3575 16.2036 85.3581 16.2036C83.9753 16.2036 82.9117 16.7136 82.2735 17.5423V16.3736H79.3166V31.4186ZM84.7412 24.7036C83.1457 24.7036 82.1033 23.5136 82.1033 21.7286C82.1033 19.9223 83.1457 18.7323 84.7412 18.7323C86.2941 18.7323 87.3577 19.9223 87.3577 21.7286C87.3577 23.5136 86.2941 24.7036 84.7412 24.7036Z" fill="white"/>
<path d="M95.4786 27.2536C97.9887 27.2536 99.648 25.9148 99.648 23.8748C99.648 19.0298 93.7767 21.5161 93.7767 19.3273C93.7767 18.6473 94.3511 18.2861 95.1807 18.2861C95.9891 18.2861 96.8187 18.7748 96.9464 19.6886H99.5204C99.414 17.5848 97.6697 16.2036 95.0957 16.2036C92.9046 16.2036 91.2666 17.5423 91.2666 19.4336C91.2666 23.9386 97.0315 21.7923 97.0315 23.9811C97.0315 24.5761 96.3933 25.0223 95.4786 25.0223C94.3724 25.0223 93.6278 24.4273 93.5215 23.4711H90.9687C91.0751 25.7873 92.862 27.2536 95.4786 27.2536Z" fill="white"/>
<path d="M111.327 16.3735H108.349V22.2385C108.349 23.5985 107.434 24.6185 106.136 24.6185C104.924 24.6185 104.073 23.6835 104.073 22.3872V16.3735H101.116V23.046C101.116 25.4897 102.69 27.2535 105.094 27.2535C106.562 27.2535 107.753 26.616 108.349 25.596V27.0835H111.327V16.3735Z" fill="white"/>
<path d="M113.454 27.0835H116.411V11.7197H113.454V27.0835Z" fill="white"/>
<path d="M125.704 23.4498C125.47 24.3636 124.683 24.8311 123.492 24.8311C122.002 24.8311 121.045 23.8961 120.832 22.3873H128.533C128.554 22.1536 128.576 21.8348 128.576 21.4311C128.576 18.9873 127.065 16.2036 123.279 16.2036C119.641 16.2036 117.982 18.9873 117.982 21.7073C117.982 24.4061 119.854 27.2536 123.492 27.2536C126.129 27.2536 128.172 25.7661 128.597 23.4498H125.704ZM123.279 18.3711C124.704 18.3711 125.534 19.3273 125.619 20.5173H120.875C121.13 19.0298 121.939 18.3711 123.279 18.3711Z" fill="white"/>
</g>
</svg>
