<svg width="140" height="40" viewBox="0 0 140 40" fill="none" xmlns="http://www.w3.org/2000/svg">
<g style="mix-blend-mode:luminosity">
<g opacity="0.5">
<path d="M18.5061 6C15.9404 6 13.8682 8.05359 13.8682 10.5961C13.8682 13.1191 15.9404 15.1727 18.4864 15.1922C17.8548 15.1727 17.3614 14.6642 17.3614 14.0383C17.3614 13.4125 17.8746 12.8844 18.5259 12.8844C21.2889 12.8844 27.4268 12.8844 30.1307 12.8844C32.0451 12.8844 33.6042 11.3393 33.6042 9.44222C33.6042 7.54508 32.0451 6 30.1307 6L18.5061 6Z" fill="#5720B7"/>
<path d="M12.8675 15.1929C10.3018 15.1929 8.22949 17.2465 8.22949 19.789C8.22949 22.312 10.3018 24.3655 12.8477 24.3851C12.2162 24.3655 11.7228 23.8571 11.7228 23.2312C11.7228 22.6053 12.2359 22.0773 12.8872 22.0773C15.6502 22.0773 21.7882 22.0773 24.492 22.0773C26.4064 22.0773 27.9655 20.5322 27.9655 18.6351C27.9655 16.7379 26.4064 15.1929 24.492 15.1929L12.8675 15.1929Z" fill="#6927DA"/>
<path d="M8.96926 24.3843C6.2203 24.3843 4 26.5958 4 29.3339C4 32.051 6.2203 34.2625 8.9481 34.2836C8.27144 34.2625 7.7428 33.7149 7.7428 33.0409C7.7428 32.3669 8.2926 31.7983 8.99042 31.7983C11.9508 31.7983 18.5272 31.7983 21.4241 31.7983C23.4753 31.7983 25.1458 30.1343 25.1458 28.0913C25.1458 26.0482 23.4753 24.3843 21.4241 24.3843L8.96926 24.3843Z" fill="#7839EE"/>
<path d="M40.6377 27.1485V12.2997H50.1532V14.8452H43.4289V18.3877H49.5611V20.9332H43.4289V24.603H50.28V27.1485H40.6377Z" fill="white"/>
<path d="M51.3735 31.391V16.627H53.9955V17.8998H54.3762C54.6158 17.4897 54.9894 17.1291 55.4969 16.8179C56.0044 16.4927 56.7304 16.3301 57.6749 16.3301C58.5207 16.3301 59.3031 16.5422 60.022 16.9664C60.741 17.3765 61.3189 17.9846 61.756 18.7907C62.193 19.5968 62.4115 20.5726 62.4115 21.7181V22.0575C62.4115 23.2029 62.193 24.1787 61.756 24.9848C61.3189 25.7909 60.741 26.406 60.022 26.8303C59.3031 27.2404 58.5207 27.4455 57.6749 27.4455C57.0405 27.4455 56.5048 27.3677 56.0678 27.2121C55.6449 27.0707 55.2995 26.8869 55.0317 26.6606C54.7779 26.4202 54.5735 26.1798 54.4185 25.9394H54.0378V31.391H51.3735ZM56.8713 25.1121C57.7031 25.1121 58.3868 24.8505 58.9225 24.3272C59.4722 23.7898 59.7471 23.012 59.7471 21.9938V21.7817C59.7471 20.7635 59.4722 19.9928 58.9225 19.4695C58.3727 18.9321 57.689 18.6634 56.8713 18.6634C56.0537 18.6634 55.37 18.9321 54.8202 19.4695C54.2704 19.9928 53.9955 20.7635 53.9955 21.7817V21.9938C53.9955 23.012 54.2704 23.7898 54.8202 24.3272C55.37 24.8505 56.0537 25.1121 56.8713 25.1121Z" fill="white"/>
<path d="M63.8006 27.1485V16.627H66.465V27.1485H63.8006ZM65.1328 15.3967C64.6535 15.3967 64.2447 15.2411 63.9064 14.93C63.5821 14.6189 63.42 14.2088 63.42 13.6997C63.42 13.1906 63.5821 12.7805 63.9064 12.4694C64.2447 12.1582 64.6535 12.0027 65.1328 12.0027C65.6262 12.0027 66.035 12.1582 66.3592 12.4694C66.6835 12.7805 66.8456 13.1906 66.8456 13.6997C66.8456 14.2088 66.6835 14.6189 66.3592 14.93C66.035 15.2411 65.6262 15.3967 65.1328 15.3967Z" fill="white"/>
<path d="M73.287 27.4455C72.272 27.4455 71.3487 27.2333 70.517 26.8091C69.6993 26.3848 69.0509 25.7697 68.5716 24.9636C68.0923 24.1575 67.8526 23.1817 67.8526 22.0362V21.7393C67.8526 20.5938 68.0923 19.618 68.5716 18.8119C69.0509 18.0059 69.6993 17.3907 70.517 16.9664C71.3487 16.5422 72.272 16.3301 73.287 16.3301C74.2879 16.3301 75.1478 16.5068 75.8668 16.8604C76.5857 17.2139 77.1637 17.7018 77.6007 18.324C78.0518 18.9321 78.3479 19.6251 78.4888 20.4029L75.9091 20.9544C75.8527 20.5302 75.7258 20.1483 75.5285 19.8089C75.3311 19.4695 75.0492 19.2008 74.6826 19.0028C74.3302 18.8049 73.8862 18.7059 73.3505 18.7059C72.8148 18.7059 72.3284 18.8261 71.8914 19.0665C71.4685 19.2927 71.1302 19.6392 70.8764 20.1059C70.6368 20.5584 70.517 21.117 70.517 21.7817V21.9938C70.517 22.6585 70.6368 23.2242 70.8764 23.6908C71.1302 24.1434 71.4685 24.4898 71.8914 24.7302C72.3284 24.9565 72.8148 25.0696 73.3505 25.0696C74.154 25.0696 74.7602 24.8646 75.169 24.4545C75.5919 24.0302 75.8597 23.4787 75.9725 22.7999L78.5523 23.4151C78.369 24.1646 78.0518 24.8505 77.6007 25.4727C77.1637 26.0808 76.5857 26.5616 75.8668 26.9151C75.1478 27.2687 74.2879 27.4455 73.287 27.4455Z" fill="white"/>
<path d="M83.6893 27.3182C82.8717 27.3182 82.1527 27.1343 81.5325 26.7667C80.9263 26.3848 80.454 25.8616 80.1157 25.1969C79.7774 24.5323 79.6082 23.7686 79.6082 22.906V16.627H82.2725V22.6938C82.2725 23.4858 82.4629 24.0797 82.8435 24.4757C83.2382 24.8717 83.795 25.0696 84.514 25.0696C85.3316 25.0696 85.966 24.801 86.4171 24.2636C86.8682 23.712 87.0937 22.9484 87.0937 21.9726V16.627H89.7581V27.1485H87.136V25.7697H86.7554C86.5862 26.1232 86.2691 26.4697 85.8039 26.8091C85.3386 27.1485 84.6338 27.3182 83.6893 27.3182Z" fill="white"/>
<path d="M91.6656 27.1485V16.627H94.2877V17.8149H94.6683C94.8233 17.3907 95.0771 17.0796 95.4295 16.8816C95.796 16.6836 96.2189 16.5846 96.6982 16.5846H97.967V18.9604H96.656C95.9793 18.9604 95.4225 19.1443 94.9855 19.5119C94.5485 19.8655 94.3299 20.417 94.3299 21.1665V27.1485H91.6656Z" fill="white"/>
<path d="M98.9922 27.1485V16.627H101.657V27.1485H98.9922ZM100.324 15.3967C99.8451 15.3967 99.4363 15.2411 99.0979 14.93C98.7737 14.6189 98.6116 14.2088 98.6116 13.6997C98.6116 13.1906 98.7737 12.7805 99.0979 12.4694C99.4363 12.1582 99.8451 12.0027 100.324 12.0027C100.818 12.0027 101.227 12.1582 101.551 12.4694C101.875 12.7805 102.037 13.1906 102.037 13.6997C102.037 14.2088 101.875 14.6189 101.551 14.93C101.227 15.2411 100.818 15.3967 100.324 15.3967Z" fill="white"/>
<path d="M108.542 27.4455C107.499 27.4455 106.561 27.2333 105.73 26.8091C104.898 26.3848 104.242 25.7697 103.763 24.9636C103.284 24.1575 103.044 23.1888 103.044 22.0575V21.7181C103.044 20.5867 103.284 19.618 103.763 18.8119C104.242 18.0059 104.898 17.3907 105.73 16.9664C106.561 16.5422 107.499 16.3301 108.542 16.3301C109.585 16.3301 110.523 16.5422 111.354 16.9664C112.186 17.3907 112.842 18.0059 113.321 18.8119C113.8 19.618 114.04 20.5867 114.04 21.7181V22.0575C114.04 23.1888 113.8 24.1575 113.321 24.9636C112.842 25.7697 112.186 26.3848 111.354 26.8091C110.523 27.2333 109.585 27.4455 108.542 27.4455ZM108.542 25.0696C109.36 25.0696 110.036 24.808 110.572 24.2848C111.108 23.7474 111.376 22.9837 111.376 21.9938V21.7817C111.376 20.7918 111.108 20.0352 110.572 19.5119C110.05 18.9746 109.374 18.7059 108.542 18.7059C107.724 18.7059 107.048 18.9746 106.512 19.5119C105.976 20.0352 105.709 20.7918 105.709 21.7817V21.9938C105.709 22.9837 105.976 23.7474 106.512 24.2848C107.048 24.808 107.724 25.0696 108.542 25.0696Z" fill="white"/>
<path d="M119.438 27.3182C118.621 27.3182 117.902 27.1343 117.282 26.7667C116.675 26.3848 116.203 25.8616 115.865 25.1969C115.527 24.5323 115.357 23.7686 115.357 22.906V16.627H118.022V22.6938C118.022 23.4858 118.212 24.0797 118.593 24.4757C118.987 24.8717 119.544 25.0696 120.263 25.0696C121.081 25.0696 121.715 24.801 122.166 24.2636C122.617 23.712 122.843 22.9484 122.843 21.9726V16.627H125.507V27.1485H122.885V25.7697H122.505C122.335 26.1232 122.018 26.4697 121.553 26.8091C121.088 27.1485 120.383 27.3182 119.438 27.3182Z" fill="white"/>
<path d="M131.771 27.4455C130.403 27.4455 129.283 27.1485 128.409 26.5545C127.535 25.9606 127.006 25.1121 126.823 24.009L129.276 23.3726C129.374 23.8676 129.536 24.2565 129.762 24.5393C130.002 24.8222 130.291 25.0272 130.629 25.1545C130.981 25.2676 131.362 25.3242 131.771 25.3242C132.391 25.3242 132.849 25.2181 133.145 25.006C133.441 24.7797 133.589 24.504 133.589 24.1787C133.589 23.8535 133.448 23.606 133.166 23.4363C132.884 23.2524 132.433 23.1039 131.813 22.9908L131.221 22.8847C130.488 22.7433 129.818 22.5524 129.212 22.312C128.606 22.0575 128.12 21.711 127.753 21.2726C127.387 20.8342 127.203 20.2685 127.203 19.5756C127.203 18.5291 127.584 17.7301 128.345 17.1786C129.106 16.6129 130.107 16.3301 131.348 16.3301C132.518 16.3301 133.491 16.5917 134.266 17.1149C135.041 17.6382 135.549 18.324 135.788 19.1725L133.314 19.9362C133.202 19.3988 132.969 19.017 132.617 18.7907C132.278 18.5644 131.855 18.4513 131.348 18.4513C130.84 18.4513 130.453 18.5432 130.185 18.7271C129.917 18.8968 129.783 19.1372 129.783 19.4483C129.783 19.7877 129.924 20.0423 130.206 20.212C130.488 20.3675 130.869 20.4877 131.348 20.5726L131.94 20.6786C132.729 20.8201 133.441 21.011 134.076 21.2514C134.724 21.4776 135.232 21.81 135.598 22.2484C135.979 22.6726 136.169 23.2524 136.169 23.9878C136.169 25.0909 135.767 25.9464 134.964 26.5545C134.174 27.1485 133.11 27.4455 131.771 27.4455Z" fill="white"/>
</g>
</g>
</svg>
