<svg width="140" height="40" viewBox="0 0 140 40" fill="none" xmlns="http://www.w3.org/2000/svg">
<g style="mix-blend-mode:luminosity" opacity="0.5">
<path d="M14.1186 24.5833C19.2937 24.5833 23.489 20.4793 23.489 15.4167C23.489 10.3541 19.2937 6.25 14.1186 6.25H1.00006V24.5833H14.1186Z" fill="#F38744"/>
<path d="M1.00006 6.25L23.489 33.75H8.49636L1.00006 24.5833V6.25Z" fill="#2E90FA"/>
<path d="M15.863 24.4248C15.2978 24.5289 14.7147 24.5833 14.1186 24.5833H1.00006V6.25L15.863 24.4248Z" fill="#53B1FD"/>
<path d="M38.9119 26.4253C37.6001 26.4253 36.4731 26.1686 35.5309 25.6553C34.6007 25.1303 33.8852 24.3953 33.3843 23.4503C32.8834 22.4936 32.6329 21.3678 32.6329 20.0728C32.6329 18.7778 32.8834 17.6578 33.3843 16.7128C33.8852 15.7678 34.6007 15.0386 35.5309 14.5253C36.4731 14.0003 37.6001 13.7378 38.9119 13.7378C39.7587 13.7378 40.5577 13.8661 41.309 14.1228C42.0723 14.3795 42.6984 14.747 43.1874 15.2253L42.436 17.0103C41.8994 16.567 41.3508 16.2461 40.7903 16.0478C40.2297 15.8378 39.6275 15.7328 38.9835 15.7328C37.7074 15.7328 36.7354 16.112 36.0676 16.8703C35.3997 17.617 35.0658 18.6845 35.0658 20.0728C35.0658 21.4611 35.3997 22.5345 36.0676 23.2928C36.7354 24.0511 37.7074 24.4303 38.9835 24.4303C39.6275 24.4303 40.2297 24.3311 40.7903 24.1328C41.3508 23.9228 41.8994 23.5961 42.436 23.1528L43.1874 24.9378C42.6984 25.4045 42.0723 25.772 41.309 26.0403C40.5577 26.297 39.7587 26.4253 38.9119 26.4253Z" fill="white"/>
<path d="M48.3316 26.4251C47.4252 26.4251 46.6381 26.2443 45.9703 25.8826C45.3024 25.5209 44.7836 25.0076 44.4139 24.3426C44.0442 23.6659 43.8594 22.8726 43.8594 21.9626C43.8594 21.0526 44.0442 20.2651 44.4139 19.6001C44.7836 18.9351 45.3024 18.4218 45.9703 18.0601C46.6381 17.6984 47.4252 17.5176 48.3316 17.5176C49.238 17.5176 50.0251 17.6984 50.6929 18.0601C51.3608 18.4218 51.8796 18.9351 52.2493 19.6001C52.619 20.2651 52.8038 21.0526 52.8038 21.9626C52.8038 22.8726 52.619 23.6659 52.2493 24.3426C51.8796 25.0076 51.3608 25.5209 50.6929 25.8826C50.0251 26.2443 49.238 26.4251 48.3316 26.4251ZM48.3316 24.7626C48.9995 24.7626 49.5361 24.5293 49.9416 24.0626C50.3471 23.5843 50.5498 22.8843 50.5498 21.9626C50.5498 21.0293 50.3471 20.3351 49.9416 19.8801C49.5361 19.4134 48.9995 19.1801 48.3316 19.1801C47.6638 19.1801 47.1271 19.4134 46.7216 19.8801C46.3161 20.3351 46.1134 21.0293 46.1134 21.9626C46.1134 22.8843 46.3161 23.5843 46.7216 24.0626C47.1271 24.5293 47.6638 24.7626 48.3316 24.7626Z" fill="white"/>
<path d="M54.6848 26.2501V17.6926H56.8673V19.0051C57.1296 18.5384 57.4934 18.1768 57.9585 17.9201C58.4236 17.6518 58.9603 17.5176 59.5685 17.5176C60.8804 17.5176 61.739 18.0776 62.1445 19.1976C62.4188 18.6726 62.8124 18.2643 63.3252 17.9726C63.838 17.6693 64.4224 17.5176 65.0783 17.5176C67.0461 17.5176 68.0299 18.6901 68.0299 21.0351V26.2501H65.7938V21.1226C65.7938 20.4693 65.6805 19.9909 65.4539 19.6876C65.2393 19.3843 64.8696 19.2326 64.3448 19.2326C63.7605 19.2326 63.3013 19.4368 62.9674 19.8451C62.6335 20.2418 62.4665 20.7959 62.4665 21.5076V26.2501H60.2304V21.1226C60.2304 20.4693 60.1171 19.9909 59.8905 19.6876C59.6758 19.3843 59.3121 19.2326 58.7993 19.2326C58.2149 19.2326 57.7558 19.4368 57.4218 19.8451C57.0879 20.2418 56.9209 20.7959 56.9209 21.5076V26.2501H54.6848Z" fill="white"/>
<path d="M70.3721 26.2501V17.6926H72.5545V19.0051C72.8169 18.5384 73.1806 18.1768 73.6457 17.9201C74.1108 17.6518 74.6475 17.5176 75.2557 17.5176C76.5676 17.5176 77.4262 18.0776 77.8317 19.1976C78.106 18.6726 78.4996 18.2643 79.0124 17.9726C79.5252 17.6693 80.1096 17.5176 80.7655 17.5176C82.7333 17.5176 83.7172 18.6901 83.7172 21.0351V26.2501H81.4811V21.1226C81.4811 20.4693 81.3678 19.9909 81.1412 19.6876C80.9265 19.3843 80.5568 19.2326 80.0321 19.2326C79.4477 19.2326 78.9885 19.4368 78.6546 19.8451C78.3207 20.2418 78.1537 20.7959 78.1537 21.5076V26.2501H75.9176V21.1226C75.9176 20.4693 75.8043 19.9909 75.5777 19.6876C75.3631 19.3843 74.9993 19.2326 74.4865 19.2326C73.9021 19.2326 73.443 19.4368 73.1091 19.8451C72.7751 20.2418 72.6082 20.7959 72.6082 21.5076V26.2501H70.3721Z" fill="white"/>
<path d="M88.9046 26.4251C88.2725 26.4251 87.706 26.3084 87.2052 26.0751C86.7162 25.8301 86.3286 25.5034 86.0424 25.0951C85.7681 24.6868 85.6309 24.2259 85.6309 23.7126C85.6309 23.0826 85.7979 22.5868 86.1318 22.2251C86.4657 21.8518 87.0084 21.5834 87.7597 21.4201C88.511 21.2568 89.5188 21.1751 90.7829 21.1751H91.409V20.8076C91.409 20.2243 91.2779 19.8043 91.0155 19.5476C90.7531 19.2909 90.3119 19.1626 89.6917 19.1626C89.2027 19.1626 88.7019 19.2384 88.189 19.3901C87.6762 19.5301 87.1575 19.7518 86.6327 20.0551L85.9887 18.5676C86.2988 18.3576 86.6625 18.1768 87.0799 18.0251C87.5093 17.8618 87.9565 17.7393 88.4216 17.6576C88.8986 17.5643 89.3459 17.5176 89.7633 17.5176C91.0393 17.5176 91.9875 17.8093 92.6076 18.3926C93.2277 18.9643 93.5378 19.8568 93.5378 21.0701V26.2501H91.4448V24.8851C91.2421 25.3634 90.9201 25.7426 90.4788 26.0226C90.0376 26.2909 89.5128 26.4251 88.9046 26.4251ZM89.3697 24.9201C89.9541 24.9201 90.4371 24.7218 90.8187 24.3251C91.2123 23.9284 91.409 23.4268 91.409 22.8201V22.4351H90.8008C89.6798 22.4351 88.8986 22.5226 88.4574 22.6976C88.028 22.8609 87.8134 23.1643 87.8134 23.6076C87.8134 23.9926 87.9505 24.3076 88.2248 24.5526C88.4991 24.7976 88.8807 24.9201 89.3697 24.9201Z" fill="white"/>
<path d="M95.8077 26.2501V17.6926H97.9901V19.0226C98.2883 18.5326 98.6878 18.1593 99.1887 17.9026C99.7015 17.6459 100.274 17.5176 100.906 17.5176C102.969 17.5176 104 18.6901 104 21.0351V26.2501H101.764V21.1401C101.764 20.4751 101.633 19.9909 101.371 19.6876C101.12 19.3843 100.727 19.2326 100.19 19.2326C99.5345 19.2326 99.0098 19.4368 98.6162 19.8451C98.2346 20.2418 98.0438 20.7726 98.0438 21.4376V26.2501H95.8077Z" fill="white"/>
<path d="M109.635 26.4251C108.872 26.4251 108.198 26.2443 107.613 25.8826C107.041 25.5209 106.594 25.0076 106.272 24.3426C105.95 23.6659 105.789 22.8726 105.789 21.9626C105.789 21.0409 105.95 20.2534 106.272 19.6001C106.594 18.9351 107.041 18.4218 107.613 18.0601C108.198 17.6984 108.872 17.5176 109.635 17.5176C110.255 17.5176 110.815 17.6518 111.316 17.9201C111.817 18.1884 112.193 18.5443 112.443 18.9876V13.9126H114.679V26.2501H112.497V24.8326C112.258 25.3226 111.883 25.7134 111.37 26.0051C110.857 26.2851 110.279 26.4251 109.635 26.4251ZM110.261 24.7626C110.929 24.7626 111.465 24.5293 111.871 24.0626C112.276 23.5843 112.479 22.8843 112.479 21.9626C112.479 21.0293 112.276 20.3351 111.871 19.8801C111.465 19.4134 110.929 19.1801 110.261 19.1801C109.593 19.1801 109.056 19.4134 108.651 19.8801C108.245 20.3351 108.043 21.0293 108.043 21.9626C108.043 22.8843 108.245 23.5843 108.651 24.0626C109.056 24.5293 109.593 24.7626 110.261 24.7626Z" fill="white"/>
<path d="M120.379 25.5498V21.9973H116.837V20.4573H120.379V17.0098H122.025V20.4573H125.567V21.9973H122.025V25.5498H120.379Z" fill="white"/>
<path d="M127.939 26.2501V13.9126H133.413C134.796 13.9126 135.864 14.2393 136.615 14.8926C137.366 15.5343 137.742 16.4384 137.742 17.6051C137.742 18.5268 137.498 19.2909 137.009 19.8976C136.52 20.4926 135.816 20.8951 134.898 21.1051C135.506 21.2918 136.007 21.7409 136.4 22.4526L138.511 26.2501H135.989L133.807 22.3126C133.592 21.9276 133.336 21.6651 133.037 21.5251C132.751 21.3851 132.381 21.3151 131.928 21.3151H130.229V26.2501H127.939ZM130.229 19.6526H133.019C134.689 19.6526 135.524 18.9876 135.524 17.6576C135.524 16.3393 134.689 15.6801 133.019 15.6801H130.229V19.6526Z" fill="white"/>
</g>
</svg>
