<svg width="140" height="40" viewBox="0 0 140 40" fill="none" xmlns="http://www.w3.org/2000/svg">
<g style="mix-blend-mode:luminosity">
<g opacity="0.5">
<path d="M16.5979 21.7767C16.2459 17.5096 12.6711 14.1562 8.31317 14.1562C3.72193 14.1562 0 17.8782 0 22.4694C0 27.0607 3.72193 30.7826 8.31317 30.7826H20.7829V21.7767H16.5979Z" fill="#528BFF"/>
<circle cx="20.0907" cy="20.3915" r="10.3915" fill="#7839EE"/>
<path d="M36.6444 20.5302C36.6444 19.1465 36.9095 17.9374 37.4397 16.9029C37.9828 15.8555 38.7523 15.0472 39.748 14.4782C40.7567 13.9093 41.9399 13.6248 43.2977 13.6248C44.3581 13.6248 45.3086 13.8317 46.1491 14.2455C46.9897 14.6593 47.6686 15.2412 48.1859 15.9912C48.7031 16.7413 49.0135 17.6077 49.1169 18.5905H46.2073C46.0392 17.8146 45.6836 17.2068 45.1405 16.7671C44.6103 16.3145 43.9443 16.0882 43.1425 16.0882C42.0563 16.0882 41.1963 16.4956 40.5627 17.3103C39.929 18.125 39.6122 19.1983 39.6122 20.5302C39.6122 21.8492 39.929 22.9226 40.5627 23.7502C41.1963 24.5649 42.0563 24.9722 43.1425 24.9722C43.9443 24.9722 44.6103 24.7524 45.1405 24.3127C45.6836 23.8601 46.0392 23.2459 46.2073 22.47H49.1169C49.0135 23.4528 48.7031 24.3192 48.1859 25.0692C47.6686 25.8192 46.9897 26.4012 46.1491 26.815C45.3086 27.2288 44.3581 27.4357 43.2977 27.4357C41.9399 27.4357 40.7567 27.1512 39.748 26.5822C38.7523 26.0132 37.9828 25.2115 37.4397 24.1769C36.9095 23.1295 36.6444 21.9139 36.6444 20.5302Z" fill="white"/>
<path d="M49.8181 13.7411H52.5531V27.3193H49.8181V13.7411Z" fill="white"/>
<path d="M58.5519 27.4357C57.5045 27.4357 56.5799 27.2288 55.7781 26.815C54.9893 26.3882 54.375 25.7869 53.9354 25.011C53.5086 24.2351 53.2953 23.3428 53.2953 22.3342C53.2953 21.3255 53.5086 20.4332 53.9354 19.6573C54.375 18.8814 54.9893 18.2866 55.7781 17.8728C56.5799 17.446 57.5045 17.2327 58.5519 17.2327C59.5994 17.2327 60.5175 17.446 61.3064 17.8728C62.1081 18.2866 62.7224 18.8814 63.1491 19.6573C63.5888 20.4332 63.8086 21.3255 63.8086 22.3342C63.8086 23.3558 63.5888 24.2545 63.1491 25.0304C62.7224 25.7934 62.1081 26.3882 61.3064 26.815C60.5175 27.2288 59.5994 27.4357 58.5519 27.4357ZM58.5519 25.205C59.3149 25.205 59.9162 24.9399 60.3559 24.4097C60.8085 23.8795 61.0348 23.1877 61.0348 22.3342C61.0348 21.4807 60.8085 20.7889 60.3559 20.2587C59.9162 19.7285 59.3149 19.4634 58.5519 19.4634C57.8019 19.4634 57.2006 19.7285 56.748 20.2587C56.3083 20.7889 56.0885 21.4807 56.0885 22.3342C56.0885 23.1877 56.3083 23.8795 56.748 24.4097C57.2006 24.9399 57.8019 25.205 58.5519 25.205Z" fill="white"/>
<path d="M73.9265 17.3491V27.3193H71.5018L71.2497 26.1167C70.9005 26.5305 70.4932 26.8538 70.0276 27.0865C69.5621 27.3193 68.9931 27.4357 68.3207 27.4357C67.1568 27.4357 66.2063 27.0801 65.4692 26.3688C64.7321 25.6447 64.3636 24.442 64.3636 22.7609V17.3491H67.0986V22.4312C67.0986 23.3364 67.2538 24.0218 67.5642 24.4873C67.8874 24.9399 68.3788 25.1662 69.0384 25.1662C69.7237 25.1662 70.2539 24.914 70.6289 24.4097C71.004 23.8924 71.1915 23.1747 71.1915 22.2566V17.3491H73.9265Z" fill="white"/>
<path d="M85.0224 13.7411V27.3193H82.6365L82.365 25.9421C81.602 26.9378 80.5675 27.4357 79.2614 27.4357C78.382 27.4357 77.5932 27.2288 76.8949 26.815C76.1966 26.3882 75.647 25.7869 75.2461 25.011C74.8582 24.2351 74.6642 23.3364 74.6642 22.3148C74.6642 21.3061 74.8582 20.4203 75.2461 19.6573C75.647 18.8814 76.1966 18.2866 76.8949 17.8728C77.6061 17.446 78.4014 17.2327 79.2808 17.2327C80.5739 17.2327 81.5761 17.6853 82.2874 18.5905V13.7411H85.0224ZM79.9015 25.205C80.6386 25.205 81.227 24.9464 81.6667 24.4291C82.1063 23.8989 82.3262 23.2071 82.3262 22.3536C82.3262 21.4872 82.1063 20.7889 81.6667 20.2587C81.227 19.7285 80.6386 19.4634 79.9015 19.4634C79.1644 19.4634 78.5695 19.7285 78.1169 20.2587C77.6773 20.7889 77.4574 21.4807 77.4574 22.3342C77.4574 23.1877 77.6773 23.8795 78.1169 24.4097C78.5695 24.9399 79.1644 25.205 79.9015 25.205Z" fill="white"/>
<path d="M85.3775 13.7411L88.3841 13.7217L90.8863 23.6532L93.5438 13.7411H96.1624L98.7423 23.6532L101.303 13.7411H104.251L100.488 27.3193H97.1323L94.7852 18.2995L92.4963 27.3193H89.1406L85.3775 13.7411Z" fill="white"/>
<path d="M113.378 25.011V27.3193H111.981C110.727 27.3193 110.112 26.7762 110.138 25.6899C109.776 26.2589 109.33 26.6921 108.8 26.9896C108.27 27.287 107.63 27.4357 106.879 27.4357C105.767 27.4357 104.869 27.1835 104.183 26.6792C103.511 26.1619 103.175 25.4378 103.175 24.5067C103.175 23.4463 103.563 22.6316 104.338 22.0626C105.127 21.4807 106.265 21.1897 107.752 21.1897H109.731V20.7048C109.731 20.2522 109.563 19.8966 109.227 19.6379C108.89 19.3664 108.438 19.2306 107.869 19.2306C107.364 19.2306 106.951 19.3405 106.627 19.5604C106.304 19.7802 106.11 20.0776 106.045 20.4526H103.407C103.498 19.431 103.95 18.6422 104.765 18.0862C105.58 17.5172 106.66 17.2327 108.005 17.2327C109.414 17.2327 110.5 17.543 111.263 18.1637C112.039 18.7845 112.427 19.6832 112.427 20.86V24.3709C112.427 24.6166 112.479 24.7847 112.582 24.8752C112.686 24.9658 112.847 25.011 113.067 25.011H113.378ZM109.731 23.0131H107.733C107.164 23.0131 106.718 23.1295 106.395 23.3622C106.084 23.5821 105.929 23.8989 105.929 24.3127C105.929 24.6619 106.058 24.9399 106.317 25.1468C106.589 25.3537 106.951 25.4572 107.403 25.4572C108.114 25.4572 108.677 25.2567 109.091 24.8558C109.505 24.442 109.718 23.8924 109.731 23.2071V23.0131Z" fill="white"/>
<path d="M114.3 19.6573H112.651V17.3491H114.3V14.5558H117.035V17.3491H119.304V19.6573H117.035V24.0218C117.035 24.3709 117.106 24.6231 117.248 24.7783C117.403 24.9334 117.656 25.011 118.005 25.011H119.421V27.3193H117.151C115.25 27.3193 114.3 26.3688 114.3 24.4679V19.6573Z" fill="white"/>
<path d="M129.229 23.5368C129.048 24.7524 128.53 25.7093 127.677 26.4076C126.836 27.093 125.744 27.4357 124.399 27.4357C123.364 27.4357 122.459 27.2288 121.683 26.815C120.907 26.3882 120.306 25.7869 119.879 25.011C119.465 24.2351 119.259 23.3428 119.259 22.3342C119.259 21.3126 119.465 20.4203 119.879 19.6573C120.306 18.8814 120.907 18.2866 121.683 17.8728C122.472 17.446 123.384 17.2327 124.418 17.2327C125.75 17.2327 126.836 17.5754 127.677 18.2607C128.518 18.9332 129.035 19.8707 129.229 21.0734H126.397C126.28 20.582 126.048 20.194 125.698 19.9095C125.349 19.6121 124.916 19.4634 124.399 19.4634C123.688 19.4634 123.119 19.7285 122.692 20.2587C122.265 20.7889 122.052 21.4807 122.052 22.3342C122.052 23.1877 122.265 23.8795 122.692 24.4097C123.119 24.9399 123.688 25.205 124.399 25.205C124.929 25.205 125.369 25.0563 125.718 24.7589C126.08 24.4614 126.313 24.0541 126.416 23.5368H129.229Z" fill="white"/>
<path d="M135.617 17.2327C136.793 17.2327 137.757 17.5948 138.507 18.3189C139.27 19.0431 139.651 20.2393 139.651 21.9074V27.3193H136.916V22.0238C136.916 21.1962 136.748 20.569 136.412 20.1423C136.076 19.7026 135.571 19.4828 134.899 19.4828C134.201 19.4828 133.651 19.722 133.25 20.2005C132.862 20.6789 132.668 21.3449 132.668 22.1984V27.3193H129.933V13.7411H132.668V18.5711C133.405 17.6788 134.388 17.2327 135.617 17.2327Z" fill="white"/>
</g>
</g>
</svg>
