<svg width="921" height="1637" viewBox="0 0 921 1637" fill="none" xmlns="http://www.w3.org/2000/svg">
<g clip-path="url(#clip0_125_8)">
<rect width="921" height="1637" fill="url(#paint0_linear_125_8)"/>
<g clip-path="url(#clip1_125_8)">
<path fill-rule="evenodd" clip-rule="evenodd" d="M452.034 818.15L457.414 807.375H411.684L405.856 801.089V791.212L412.581 782.232H462.794L468.174 772.354H404.511L390.165 787.62V807.375L401.821 818.15H452.034ZM183.934 818.15L195.59 774.15H254.769L261.943 779.538V794.803L244.01 802.885L254.769 818.15H238.63L227.87 804.681H202.763L199.177 818.15H183.934ZM502.247 774.15L487.004 818.15H500.453L513.903 774.15H502.247ZM538.113 818.15L552.459 774.15H564.116L597.292 804.681L608.052 774.15H620.605L606.259 818.15H595.499L560.529 787.62L550.666 818.15H538.113ZM700.408 818.15H654.678L645.712 806.477V786.722L660.058 772.354H714.754L709.374 782.232H667.231L659.162 790.314V799.293L664.542 807.375H695.028V799.293H675.301L681.578 791.212H707.581V807.375L700.408 818.15ZM328.295 774.15L278.979 818.15H294.222L306.776 807.375H342.642L346.228 818.15H360.575L342.642 774.15H328.295ZM317.535 797.497L331.882 782.232L339.055 797.497H317.535ZM209.04 783.13L206.35 793.906H242.216L247.596 791.212V785.824L242.42 783.13H209.04Z" fill="#FAFAFA"/>
<path d="M612.535 556.872C568.558 558.176 524.663 607.096 524.663 651.131C524.663 694.567 567.373 717.243 610.742 718.429V718.478H711.168L725.514 675.376H619.142C598.031 675.376 576.669 664.524 576.669 643.199C576.669 621.874 598.031 598.151 619.142 598.151H742.809L756 556.845H612.535V556.872Z" fill="#FAFAFA"/>
<path d="M265.529 557.694C275.783 554.617 287.535 555.022 302.292 555.027V555H445.757L432.565 596.306H308.899C287.787 596.306 266.426 620.029 266.426 641.354C266.426 662.679 287.787 673.531 308.899 673.531H415.271L400.924 716.633H300.498V716.584C249.163 716.616 238.629 709.449 219.636 686.134L166 612.469L245.177 568.895C248.116 566.941 251.331 565.159 254.847 563.573L265.529 557.694Z" fill="#FAFAFA"/>
<path d="M471.76 596.355H521.076L478.522 716.682H426.03L471.76 596.355Z" fill="#FAFAFA"/>
<path d="M488.796 555H504.936L499.556 567.571H483.416L488.796 555Z" fill="#FAFAFA"/>
<path d="M515.696 567.572H499.556L494.176 580.143H478.036L472.656 592.714H488.796L494.176 580.143H510.316L504.936 592.714H521.076L526.456 580.143H510.316L515.696 567.572Z" fill="#FAFAFA"/>
<path d="M515.696 567.571L521.076 555H537.564L531.836 567.571H515.696Z" fill="#FAFAFA"/>
<path d="M282.565 729.253H705.787L701.72 740.028H289.739L282.565 729.253Z" fill="#EB1C24"/>
<path d="M259.252 729.253L264.632 740.028H233.291C233.291 740.028 224.073 739.13 219.464 734.64C215.846 731.117 213.012 726.559 213.012 726.559L166 658.314V639.457L226.839 722.967C226.839 722.967 227.852 724.763 231.447 726.559C235.043 728.355 239.526 729.253 239.526 729.253H259.252Z" fill="#00A952"/>
</g>
<rect width="898.719" height="49.0576" transform="translate(355 1665.49) rotate(-45)" fill="#EB1C24"/>
<rect width="898.719" height="174.835" transform="translate(440 1725.49) rotate(-45)" fill="#EB1C24"/>
<rect width="898.719" height="49.0576" transform="translate(599 1889.49) rotate(-45)" fill="#EB1C24"/>
</g>
<defs>
<linearGradient id="paint0_linear_125_8" x1="460.5" y1="0" x2="460.5" y2="1637" gradientUnits="userSpaceOnUse">
<stop stop-color="#EB1C24"/>
<stop offset="0.515" stop-color="#0E0E0E"/>
</linearGradient>
<clipPath id="clip0_125_8">
<rect width="921" height="1637" fill="white"/>
</clipPath>
<clipPath id="clip1_125_8">
<rect width="590" height="264" fill="white" transform="translate(166 555)"/>
</clipPath>
</defs>
</svg>
