<svg width="348" height="123" viewBox="0 0 348 123" fill="none" xmlns="http://www.w3.org/2000/svg">
<path d="M281.664 121.607C314.367 120.865 347.254 84.773 347.481 52.0811C347.704 19.8336 316.066 2.77879 283.828 1.67565L283.828 1.63926L208.333 0.891603L198.333 31.5583L277 31.5583C292.696 31.6669 308.884 41.8704 308.774 57.7022C308.665 73.534 292.696 89.6669 277 89.5583L185.667 88.8916L175 120.889L281.664 121.627L281.664 121.607Z" fill="#2F2F2F"/>
<path d="M74.334 2.89172C81.9578 0.607712 90.6953 0.907859 101.667 0.911519V0.891724H208.334L198.526 31.5584H106.58C90.8831 31.5584 75.0007 49.1707 75.0007 65.0028C75.0007 80.835 90.8831 88.8917 106.58 88.8917H185.667L175.001 120.892H100.334V120.855C62.1657 120.88 54.334 115.558 40.2122 98.2486L0.333984 43.5584L59.2022 11.2074C61.3876 9.75676 63.7779 8.43421 66.3919 7.25632L74.334 2.89172Z" fill="#2F2F2F"/>
<path d="M177.54 31.5583H217.666L183.043 120.892H140.333L177.54 31.5583Z" fill="#2F2F2F"/>
<path d="M190.928 0.891724H204.19L199.769 11.1139H186.507L190.928 0.891724Z" fill="white"/>
<path d="M213.031 11.1139H199.769L195.348 21.3362H182.087L177.666 31.5584H190.928L195.348 21.3362H208.61L204.19 31.5584H217.451L221.872 21.3362H208.61L213.031 11.1139Z" fill="white"/>
<path d="M213.031 11.1139L217.451 0.891724H230.999L226.292 11.1139H213.031Z" fill="white"/>
<path d="M221.666 99.3334H261.666L256.999 112H216.333L221.666 99.3334Z" fill="#EB1C24"/>
<path d="M109.667 10H151.667L146.334 23.3333H104.334L109.667 10Z" fill="#00A952"/>
</svg>
