<svg width="329" height="147" viewBox="0 0 329 147" fill="none" xmlns="http://www.w3.org/2000/svg">
<path fill-rule="evenodd" clip-rule="evenodd" d="M159.5 146.527L162.5 140.527H137L133.75 137.027V131.527L137.5 126.527H165.5L168.5 121.027H133L125 129.527V140.527L131.5 146.527H159.5ZM10 146.527L16.5 122.027H49.5L53.5 125.027V133.527L43.5 138.027L49.5 146.527H40.5L34.5 139.027H20.5L18.5 146.527H10ZM187.5 122.027L179 146.527H186.5L194 122.027H187.5ZM207.5 146.527L215.5 122.027H222L240.5 139.027L246.5 122.027H253.5L245.5 146.527H239.5L220 129.527L214.5 146.527H207.5ZM298 146.527H272.5L267.5 140.027V129.027L275.5 121.027H306L303 126.527H279.5L275 131.027V136.027L278 140.527H295V136.027H284L287.5 131.527H302V140.527L298 146.527ZM90.5 122.027L63 146.527H71.5L78.5 140.527H98.5L100.5 146.527H108.5L98.5 122.027H90.5ZM84.5 135.027L92.5 126.527L96.5 135.027H84.5ZM24 127.027L22.5 133.027H42.5L45.5 131.527V128.527L42.6137 127.027H24Z" fill="#FAFAFA"/>
<path d="M249 1.04213C224.477 1.76834 200 29.0078 200 53.5273C200 77.7135 223.816 90.34 248 91V91.0273H304L312 67.0273H252.684C240.912 67.0273 229 60.9847 229 49.1106C229 37.2365 240.912 24.0273 252.684 24.0273H321.644L329 1.02728H249V1.04213Z" fill="#FAFAFA"/>
<path d="M55.5 1.5C61.2178 -0.213009 67.771 0.0121013 76 0.0148468V0H156L148.644 23H79.6842C67.9118 23 56 36.2092 56 48.0833C56 59.9575 67.9118 66 79.6842 66H139L131 90H75V89.9727C46.3738 89.9909 40.5 86 29.9087 73.0176L0 32L44.1512 7.73673C45.7902 6.64878 47.5829 5.65686 49.5434 4.77345L55.5 1.5Z" fill="#FAFAFA"/>
<path d="M170.5 23.0273H198L174.271 90.0273H145L170.5 23.0273Z" fill="#FAFAFA"/>
<path d="M180 0H189L186 7H177L180 0Z" fill="#FAFAFA"/>
<path d="M195 7H186L183 14H174L171 21H180L183 14H192L189 21H198L201 14H192L195 7Z" fill="#FAFAFA"/>
<path d="M195 7L198 0H207.194L204 7H195Z" fill="#FAFAFA"/>
<path d="M65 97.0273H301L298.732 103.027H69L65 97.0273Z" fill="#EB1C24"/>
<path d="M52 97.0273L55 103.027H37.5234C37.5234 103.027 32.3832 102.527 29.8131 100.027C27.7957 98.0649 26.215 95.5273 26.215 95.5273L0 57.5273V47.0273L33.9252 93.5273C33.9252 93.5273 34.4906 94.5273 36.4953 95.5273C38.5 96.5273 41 97.0273 41 97.0273H52Z" fill="#00A952"/>
</svg>
