<svg width="600" height="600" viewBox="0 0 600 600" fill="none" xmlns="http://www.w3.org/2000/svg">
<g clip-path="url(#clip0_108_28)">
<rect width="600" height="600" rx="150" fill="white"/>
<path d="M459.997 389.411C509.051 388.298 558.382 334.16 558.721 285.122C559.056 236.75 511.599 211.168 463.242 209.513L463.243 209.459L350 208.337L335 254.337L453 254.337C476.544 254.5 500.826 269.806 500.661 293.553C500.497 317.301 476.544 341.5 453 341.337L316 340.337L300 388.333L459.996 389.441L459.997 389.411Z" fill="#2F2F2F"/>
<path d="M149 211.338C160.436 207.912 173.542 208.362 190 208.367V208.338H350L335.287 254.338H197.368C173.824 254.338 150 280.756 150 304.504C150 328.252 173.824 340.338 197.368 340.338H316L300 388.338H188V388.283C130.748 388.319 119 380.338 97.8174 354.373L38 272.338L126.302 223.811C129.58 221.635 133.166 219.651 137.087 217.884L149 211.338Z" fill="#2F2F2F"/>
<path d="M303.811 254.338H364L312.065 388.338H248L303.811 254.338Z" fill="#2F2F2F"/>
<path d="M323.893 208.338H343.785L337.154 223.671H317.262L323.893 208.338Z" fill="white"/>
<path d="M357.047 223.671H337.154L330.524 239.004H310.631L304 254.338H323.893L330.524 239.004H350.416L343.785 254.338H363.678L370.309 239.004H350.416L357.047 223.671Z" fill="white"/>
<path d="M357.047 223.671L363.678 208.338H384L376.94 223.671H357.047Z" fill="white"/>
<path d="M370 356H430L423 375H362L370 356Z" fill="#EB1C24"/>
<path d="M202 222H265L257 242H194L202 222Z" fill="#00A952"/>
</g>
<defs>
<clipPath id="clip0_108_28">
<rect width="600" height="600" rx="150" fill="white"/>
</clipPath>
</defs>
</svg>
