<svg width="400" height="400" viewBox="0 0 400 400" fill="none" xmlns="http://www.w3.org/2000/svg">
<g clip-path="url(#clip0_108_18)">
<rect width="400" height="400" rx="100" fill="white"/>
<path d="M306.664 259.607C339.367 258.865 372.254 222.773 372.481 190.081C372.704 157.834 341.066 140.779 308.828 139.676L308.828 139.639L233.333 138.892L223.333 169.558L302 169.558C317.696 169.667 333.884 179.87 333.774 195.702C333.665 211.534 317.696 227.667 302 227.558L210.667 226.892L200 258.889L306.664 259.627L306.664 259.607Z" fill="#2F2F2F"/>
<path d="M99.334 140.892C106.958 138.608 115.695 138.908 126.667 138.912V138.892H233.334L223.526 169.558H131.58C115.883 169.558 100.001 187.171 100.001 203.003C100.001 218.835 115.883 226.892 131.58 226.892H210.667L200.001 258.892H125.334V258.855C87.1657 258.88 79.334 253.558 65.2122 236.249L25.334 181.558L84.2022 149.207C86.3876 147.757 88.7779 146.434 91.3919 145.256L99.334 140.892Z" fill="#2F2F2F"/>
<path d="M202.54 169.558H242.666L208.042 258.892H165.333L202.54 169.558Z" fill="#2F2F2F"/>
<path d="M215.928 138.892H229.19L224.769 149.114H211.507L215.928 138.892Z" fill="white"/>
<path d="M238.031 149.114H224.769L220.348 159.336H207.087L202.666 169.558H215.928L220.348 159.336H233.61L229.19 169.558H242.451L246.872 159.336H233.61L238.031 149.114Z" fill="white"/>
<path d="M238.031 149.114L242.451 138.892H255.999L251.292 149.114H238.031Z" fill="white"/>
<path d="M246.666 237.333H286.666L281.999 250H241.333L246.666 237.333Z" fill="#EB1C24"/>
<path d="M134.667 148H176.667L171.334 161.333H129.334L134.667 148Z" fill="#00A952"/>
</g>
<defs>
<clipPath id="clip0_108_18">
<rect width="400" height="400" rx="100" fill="white"/>
</clipPath>
</defs>
</svg>
